0
SECTION
2
HEADER
9
$INSUNITS
70
4
9
$ACADVER
1
AC1014
9
$HANDSEED
5
FFFF
0
ENDSEC
0
SECTION
2
TABLES
0
TABLE
2
VPORT
5
8
100
AcDbSymbolTable
0
ENDTAB
0
TABLE
2
LTYPE
5
5
100
AcDbSymbolTable
0
LTYPE
5
14
100
AcDbSymbolTableRecord
100
AcDbLinetypeTableRecord
2
BYBLOCK
70
0
0
LTYPE
5
15
100
AcDbSymbolTableRecord
100
AcDbLinetypeTableRecord
2
BYLAYER
70
0
0
LTYPE
5
16
100
AcDbSymbolTableRecord
100
AcDbLinetypeTableRecord
2
DASHED
70
0
3
Dashed __ __ __ __ __ __ __ __ __ __ __ __ __ _
72
65
73
2
40
0.75
49
0.5
74
0
49
-0.25
74
0
0
ENDTAB
0
TABLE
2
LAYER
5
2
100
AcDbSymbolTable
70
3
0
LAYER
5
50
100
AcDbSymbolTableRecord
100
AcDbLayerTableRecord
2
1
70
0
62
7
6
DASHED
0
LAYER
5
51
100
AcDbSymbolTableRecord
100
AcDbLayerTableRecord
2
0
70
0
62
7
6
CONTINUOUS
0
ENDTAB
0
TABLE
2
STYLE
5
3
100
AcDbSymbolTable
70
1
0
STYLE
5
11
100
AcDbSymbolTableRecord
100
AcDbTextStyleTableRecord
2
STANDARD
70
0
0
ENDTAB
0
TABLE
2
VIEW
5
6
100
AcDbSymbolTable
70
0
0
ENDTAB
0
TABLE
2
UCS
5
7
100
AcDbSymbolTable
70
0
0
ENDTAB
0
TABLE
2
APPID
5
9
100
AcDbSymbolTable
70
2
0
APPID
5
12
100
AcDbSymbolTableRecord
100
AcDbRegAppTableRecord
2
ACAD
70
0
0
ENDTAB
0
TABLE
2
DIMSTYLE
5
A
100
AcDbSymbolTable
70
1
0
ENDTAB
0
TABLE
2
BLOCK_RECORD
5
1
100
AcDbSymbolTable
70
1
0
BLOCK_RECORD
5
1F
100
AcDbSymbolTableRecord
100
AcDbBlockTableRecord
2
*MODEL_SPACE
0
BLOCK_RECORD
5
1B
100
AcDbSymbolTableRecord
100
AcDbBlockTableRecord
2
*PAPER_SPACE
0
ENDTAB
0
ENDSEC
0
SECTION
2
BLOCKS
0
BLOCK
5
20
100
AcDbEntity
100
AcDbBlockBegin
2
*MODEL_SPACE
0
ENDBLK
5
21
100
AcDbEntity
100
AcDbBlockEnd
0
BLOCK
5
1C
100
AcDbEntity
100
AcDbBlockBegin
2
*PAPER_SPACE
0
ENDBLK
5
1D
100
AcDbEntity
100
AcDbBlockEnd
0
ENDSEC
0
SECTION
2
ENTITIES
0
POINT
5
100
100
AcDbEntity
8
0
100
AcDbPoint
10
0
20
0
30
0
0
POINT
5
101
100
AcDbEntity
8
0
100
AcDbPoint
10
150
20
0
30
0
0
POINT
5
102
100
AcDbEntity
8
0
100
AcDbPoint
10
150
20
0
30
0
0
POINT
5
103
100
AcDbEntity
8
0
100
AcDbPoint
10
149.9999999999996
20
300.00000000000034
30
0
0
POINT
5
104
100
AcDbEntity
8
0
100
AcDbPoint
10
-3.9079850466805505e-13
20
299.99999999999994
30
0
0
POINT
5
105
100
AcDbEntity
8
0
100
AcDbPoint
10
149.9999999999996
20
300.0000000000004
30
0
0
POINT
5
106
100
AcDbEntity
8
0
100
AcDbPoint
10
-3.907985046680551e-13
20
300
30
0
0
POINT
5
107
100
AcDbEntity
8
0
100
AcDbPoint
10
149.9999999999996
20
300.00000000000034
30
0
0
POINT
5
108
100
AcDbEntity
8
0
100
AcDbPoint
10
-3.9079850466805505e-13
20
299.99999999999994
30
0
0
POINT
5
109
100
AcDbEntity
8
0
100
AcDbPoint
10
74.999999999999218
20
450.00000000000023
30
0
0
LINE
5
110
100
AcDbEntity
8
1
100
AcDbLine
10
0
20
0
30
0
11
150
21
0
31
0
0
LINE
5
111
100
AcDbEntity
8
0
100
AcDbLine
10
150
20
0
30
0
11
150
21
300.00000000000034
31
0
0
LINE
5
112
100
AcDbEntity
8
0
100
AcDbLine
10
150
20
300.00000000000034
30
0
11
0
21
299.99999999999994
31
0
0
LINE
5
113
100
AcDbEntity
8
1
100
AcDbLine
10
0
20
299.99999999999994
30
0
11
0
21
0
31
0
0
LINE
5
114
100
AcDbEntity
8
1
100
AcDbLine
10
75
20
300.00000000000011
30
0
11
75
21
0
31
0
0
LINE
5
115
100
AcDbEntity
8
1
100
AcDbLine
10
0
20
149.99999999999997
30
0
11
150
21
150.00000000000017
31
0
0
LINE
5
116
100
AcDbEntity
8
1
100
AcDbLine
10
0
20
70.000000000000298
30
0
11
150
21
70.000000000000114
31
0
0
LINE
5
117
100
AcDbEntity
8
1
100
AcDbLine
10
5.2106467289074018e-15
20
74.000000000000313
30
0
11
150
21
74.000000000000114
31
0
0
LINE
5
118
100
AcDbEntity
8
1
100
AcDbLine
10
112.50000000000065
20
0
30
0
11
112.49999999999994
21
300.00000000000023
31
0
0
LINE
5
119
100
AcDbEntity
8
0
100
AcDbLine
10
100.17318921110592
20
72.000000000000185
30
0
11
124.93381773076614
21
72.000000000000185
31
0
0
LWPOLYLINE
5
120
100
AcDbEntity
8
0
100
AcDbPolyline
90
4
70
1
43
0.0
10
107.5000000000003
20
70.000000000000156
10
117.5000000000003
20
70.000000000000156
10
117.5000000000003
20
66.000000000000156
10
107.5000000000003
20
66.000000000000156
0
LWPOLYLINE
5
121
100
AcDbEntity
8
0
100
AcDbPolyline
90
4
70
1
43
0.0
10
107.5000000000003
20
78.000000000000227
10
107.5000000000003
20
74.000000000000213
10
117.5000000000003
20
74.000000000000213
10
117.5000000000003
20
78.000000000000227
0
LWPOLYLINE
5
122
100
AcDbEntity
8
0
100
AcDbPolyline
90
4
70
1
43
0.0
10
107.50000000000009
20
234.00000000000009
10
107.50000000000009
20
230.00000000000006
10
117.50000000000009
20
230.00000000000011
10
117.50000000000009
20
234.00000000000011
0
LINE
5
123
100
AcDbEntity
8
1
100
AcDbLine
10
-1.9279392896957299e-13
20
225.99999999999966
30
0
11
149.9999999999998
21
226.00000000000023
31
0
0
LWPOLYLINE
5
124
100
AcDbEntity
8
0
100
AcDbPolyline
90
4
70
1
43
0.0
10
117.50000000000011
20
222.00000000000003
10
107.50000000000011
20
222.00000000000003
10
107.50000000000011
20
226
10
117.50000000000011
20
226.00000000000006
0
LINE
5
125
100
AcDbEntity
8
1
100
AcDbLine
10
-2.0842586915629521e-13
20
229.99999999999966
30
0
11
149.99999999999977
21
230.00000000000026
31
0
0
LINE
5
126
100
AcDbEntity
8
0
100
AcDbLine
10
100.17318921110572
20
228.00000000000006
30
0
11
124.93381773076594
21
228.00000000000011
31
0
0
LWPOLYLINE
5
127
100
AcDbEntity
8
0
100
AcDbPolyline
90
4
70
1
43
0.0
10
32.499999999999702
20
70.000000000000142
10
32.499999999999702
20
66.000000000000156
10
42.499999999999702
20
66.000000000000156
10
42.499999999999702
20
70.000000000000142
0
LWPOLYLINE
5
128
100
AcDbEntity
8
0
100
AcDbPolyline
90
4
70
1
43
0.0
10
32.499999999999702
20
78.000000000000227
10
42.499999999999702
20
78.000000000000227
10
42.499999999999702
20
74.000000000000199
10
32.499999999999702
20
74.000000000000199
0
LWPOLYLINE
5
129
100
AcDbEntity
8
0
100
AcDbPolyline
90
4
70
1
43
0.0
10
32.499999999999915
20
234.00000000000011
10
42.499999999999915
20
234.00000000000009
10
42.499999999999915
20
230.00000000000006
10
32.499999999999915
20
230.00000000000011
0
LINE
5
130
100
AcDbEntity
8
0
100
AcDbLine
10
49.826810788894079
20
72.000000000000171
30
0
11
25.066182269233863
21
72.000000000000171
31
0
0
LWPOLYLINE
5
131
100
AcDbEntity
8
0
100
AcDbPolyline
90
4
70
1
43
0.0
10
42.499999999999893
20
226
10
32.499999999999893
20
226.00000000000006
10
32.499999999999893
20
222.00000000000003
10
42.499999999999893
20
222.00000000000003
0
LINE
5
132
100
AcDbEntity
8
0
100
AcDbLine
10
49.826810788894278
20
228.00000000000006
30
0
11
25.066182269234059
21
228.00000000000011
31
0
0
LINE
5
133
100
AcDbEntity
8
1
100
AcDbLine
10
37.499999999999346
20
0
30
0
11
37.500000000000057
21
300.00000000000023
31
0
0
LINE
5
134
100
AcDbEntity
8
1
100
AcDbLine
10
0
20
299.99999999999994
30
0
11
-150
21
299.99999999999994
31
0
0
LINE
5
135
100
AcDbEntity
8
1
100
AcDbLine
10
-150
20
299.99999999999994
30
0
11
-150
21
-3.5527136788005009e-14
31
0
0
LINE
5
136
100
AcDbEntity
8
1
100
AcDbLine
10
-150
20
-3.5527136788005009e-14
30
0
11
0
21
-3.5527136788005009e-14
31
0
0
LINE
5
137
100
AcDbEntity
8
0
100
AcDbLine
10
0
20
-3.5527136788005009e-14
30
0
11
0
21
299.99999999999994
31
0
0
LINE
5
138
100
AcDbEntity
8
0
100
AcDbLine
10
150
20
0
30
0
11
0
21
0
31
0
0
LINE
5
139
100
AcDbEntity
8
0
100
AcDbLine
10
0
20
-150
30
0
11
150
21
-150
31
0
0
LINE
5
140
100
AcDbEntity
8
1
100
AcDbLine
10
150
20
-150
30
0
11
150
21
0
31
0
0
LINE
5
141
100
AcDbEntity
8
1
100
AcDbLine
10
75
20
0
30
0
11
75
21
-150
31
0
0
LINE
5
142
100
AcDbEntity
8
0
100
AcDbLine
10
35
20
-130
30
0
11
75
21
-130
31
0
0
LINE
5
143
100
AcDbEntity
8
0
100
AcDbLine
10
75
20
-110
30
0
11
35
21
-110
31
0
0
LINE
5
144
100
AcDbEntity
8
0
100
AcDbLine
10
35
20
-110
30
0
11
35
21
-130
31
0
0
LWPOLYLINE
5
145
100
AcDbEntity
8
0
100
AcDbPolyline
90
4
70
1
43
0.0
10
0
20
-150
10
-3.9999999999999996
20
-150
10
-3.9999999999999996
20
-140
10
0
20
-140
0
LINE
5
146
100
AcDbEntity
8
0
100
AcDbLine
10
-3.9999999999999996
20
-120
30
0
11
0
21
-120
31
0
0
LINE
5
147
100
AcDbEntity
8
0
100
AcDbLine
10
-3.9999999999999996
20
-130
30
0
11
-3.9999999999999996
21
-120
31
0
0
LINE
5
148
100
AcDbEntity
8
0
100
AcDbLine
10
0
20
-130
30
0
11
-3.9999999999999996
21
-130
31
0
0
LINE
5
149
100
AcDbEntity
8
0
100
AcDbLine
10
-3.9999999999999996
20
-100
30
0
11
0
21
-100
31
0
0
LINE
5
150
100
AcDbEntity
8
0
100
AcDbLine
10
-3.9999999999999996
20
-110
30
0
11
-3.9999999999999996
21
-100
31
0
0
LINE
5
151
100
AcDbEntity
8
0
100
AcDbLine
10
0
20
-110
30
0
11
-3.9999999999999996
21
-110
31
0
0
LINE
5
152
100
AcDbEntity
8
0
100
AcDbLine
10
-3.9999999999999996
20
-80
30
0
11
0
21
-80
31
0
0
LINE
5
153
100
AcDbEntity
8
0
100
AcDbLine
10
-3.9999999999999996
20
-90
30
0
11
-3.9999999999999996
21
-80
31
0
0
LINE
5
154
100
AcDbEntity
8
0
100
AcDbLine
10
0
20
-90
30
0
11
-3.9999999999999996
21
-90
31
0
0
LINE
5
155
100
AcDbEntity
8
0
100
AcDbLine
10
-3.9999999999999996
20
-60
30
0
11
0
21
-60
31
0
0
LINE
5
156
100
AcDbEntity
8
0
100
AcDbLine
10
-3.9999999999999996
20
-70
30
0
11
-3.9999999999999996
21
-60
31
0
0
LINE
5
157
100
AcDbEntity
8
0
100
AcDbLine
10
0
20
-70
30
0
11
-3.9999999999999996
21
-70
31
0
0
LINE
5
158
100
AcDbEntity
8
0
100
AcDbLine
10
-3.9999999999999996
20
-40
30
0
11
0
21
-40
31
0
0
LINE
5
159
100
AcDbEntity
8
0
100
AcDbLine
10
-3.9999999999999996
20
-50
30
0
11
-3.9999999999999996
21
-40
31
0
0
LINE
5
160
100
AcDbEntity
8
0
100
AcDbLine
10
0
20
-50
30
0
11
-3.9999999999999996
21
-50
31
0
0
LINE
5
161
100
AcDbEntity
8
0
100
AcDbLine
10
-3.9999999999999996
20
-20
30
0
11
0
21
-20
31
0
0
LINE
5
162
100
AcDbEntity
8
0
100
AcDbLine
10
-3.9999999999999996
20
-30
30
0
11
-3.9999999999999996
21
-20
31
0
0
LINE
5
163
100
AcDbEntity
8
0
100
AcDbLine
10
0
20
-30
30
0
11
-3.9999999999999996
21
-30
31
0
0
LINE
5
164
100
AcDbEntity
8
0
100
AcDbLine
10
-3.9999999999999996
20
0
30
0
11
0
21
0
31
0
0
LINE
5
165
100
AcDbEntity
8
0
100
AcDbLine
10
-3.9999999999999996
20
-10
30
0
11
-3.9999999999999996
21
0
31
0
0
LINE
5
166
100
AcDbEntity
8
0
100
AcDbLine
10
0
20
-10
30
0
11
-3.9999999999999996
21
-10
31
0
0
LINE
5
167
100
AcDbEntity
8
0
100
AcDbLine
10
-3.9999999999999996
20
0
30
0
11
-3.9999999999999996
21
-1.3069717935674063
31
0
0
LWPOLYLINE
5
168
100
AcDbEntity
8
0
100
AcDbPolyline
90
4
70
1
43
0.0
10
75
20
-110
10
115
20
-110
10
115
20
-130
10
75
20
-130
0
LINE
5
169
100
AcDbEntity
8
0
100
AcDbLine
10
0
20
-140
30
0
11
0
21
-130
31
0
0
LINE
5
170
100
AcDbEntity
8
0
100
AcDbLine
10
0
20
-120
30
0
11
0
21
-110
31
0
0
LINE
5
171
100
AcDbEntity
8
0
100
AcDbLine
10
0
20
-90
30
0
11
0
21
-100
31
0
0
LINE
5
172
100
AcDbEntity
8
0
100
AcDbLine
10
0
20
-70
30
0
11
0
21
-80
31
0
0
LINE
5
173
100
AcDbEntity
8
0
100
AcDbLine
10
0
20
-50
30
0
11
0
21
-50.8912632676386
31
0
0
LINE
5
174
100
AcDbEntity
8
0
100
AcDbLine
10
0
20
-60
30
0
11
0
21
-50
31
0
0
LINE
5
175
100
AcDbEntity
8
0
100
AcDbLine
10
0
20
-30
30
0
11
0
21
-40
31
0
0
LINE
5
176
100
AcDbEntity
8
0
100
AcDbLine
10
0
20
-10
30
0
11
0
21
-20
31
0
0
LINE
5
177
100
AcDbEntity
8
1
100
AcDbLine
10
-150
20
-3.5527136788005009e-14
30
0
11
-150
21
-127.03137111481655
31
0
0
LINE
5
178
100
AcDbEntity
8
0
100
AcDbLine
10
-140
20
-3.5527136788005009e-14
30
0
11
-140
21
-4.0000000000000355
31
0
0
LINE
5
179
100
AcDbEntity
8
1
100
AcDbLine
10
-140
20
-4.0000000000000355
30
0
11
-140
21
-145.5943148849133
31
0
0
LINE
5
180
100
AcDbEntity
8
1
100
AcDbLine
10
-140
20
-3.5527136788005009e-14
30
0
11
-130
21
-3.5527136788005009e-14
31
0
0
LINE
5
181
100
AcDbEntity
8
0
100
AcDbLine
10
-130
20
-3.5527136788005009e-14
30
0
11
-130
21
-4.0000000000000355
31
0
0
LINE
5
182
100
AcDbEntity
8
0
100
AcDbLine
10
-130
20
-4.0000000000000355
30
0
11
-140
21
-4.0000000000000355
31
0
0
LINE
5
183
100
AcDbEntity
8
0
100
AcDbLine
10
-140
20
-4.0000000000000355
30
0
11
-140
21
-3.5527136788005009e-14
31
0
0
LINE
5
184
100
AcDbEntity
8
0
100
AcDbLine
10
-110
20
-4.0000000000000355
30
0
11
-120
21
-4.0000000000000355
31
0
0
LINE
5
185
100
AcDbEntity
8
0
100
AcDbLine
10
-110
20
-3.5527136788005009e-14
30
0
11
-110
21
-4.0000000000000355
31
0
0
LINE
5
186
100
AcDbEntity
8
0
100
AcDbLine
10
-90
20
-4.0000000000000355
30
0
11
-100
21
-4.0000000000000355
31
0
0
LINE
5
187
100
AcDbEntity
8
0
100
AcDbLine
10
-90
20
-3.5527136788005009e-14
30
0
11
-90
21
-4.0000000000000355
31
0
0
LINE
5
188
100
AcDbEntity
8
0
100
AcDbLine
10
-70
20
-4.0000000000000355
30
0
11
-80
21
-4.0000000000000355
31
0
0
LINE
5
189
100
AcDbEntity
8
0
100
AcDbLine
10
-70
20
-3.5527136788005009e-14
30
0
11
-70
21
-4.0000000000000355
31
0
0
LINE
5
190
100
AcDbEntity
8
0
100
AcDbLine
10
-50
20
-4.0000000000000355
30
0
11
-60
21
-4.0000000000000355
31
0
0
LINE
5
191
100
AcDbEntity
8
0
100
AcDbLine
10
-50
20
-3.5527136788005009e-14
30
0
11
-50
21
-4.0000000000000355
31
0
0
LINE
5
192
100
AcDbEntity
8
0
100
AcDbLine
10
-30
20
-4.0000000000000355
30
0
11
-40
21
-4.0000000000000355
31
0
0
LINE
5
193
100
AcDbEntity
8
0
100
AcDbLine
10
-30
20
-3.5527136788005009e-14
30
0
11
-30
21
-4.0000000000000355
31
0
0
LINE
5
194
100
AcDbEntity
8
0
100
AcDbLine
10
-10
20
-4.0000000000000355
30
0
11
-20
21
-4.0000000000000355
31
0
0
LINE
5
195
100
AcDbEntity
8
0
100
AcDbLine
10
-10
20
-3.5527136788005009e-14
30
0
11
-10
21
-4.0000000000000355
31
0
0
LINE
5
196
100
AcDbEntity
8
0
100
AcDbLine
10
-120
20
-3.5527136788005009e-14
30
0
11
-120
21
-4.0000000000000355
31
0
0
LINE
5
197
100
AcDbEntity
8
0
100
AcDbLine
10
-100
20
-3.5527136788005009e-14
30
0
11
-100
21
-4.0000000000000355
31
0
0
LINE
5
198
100
AcDbEntity
8
0
100
AcDbLine
10
-80
20
-3.5527136788005009e-14
30
0
11
-80
21
-4.0000000000000355
31
0
0
LINE
5
199
100
AcDbEntity
8
0
100
AcDbLine
10
-60
20
-3.5527136788005009e-14
30
0
11
-60
21
-4.0000000000000355
31
0
0
LINE
5
200
100
AcDbEntity
8
0
100
AcDbLine
10
-40
20
-3.5527136788005009e-14
30
0
11
-40
21
-4.0000000000000355
31
0
0
LINE
5
201
100
AcDbEntity
8
0
100
AcDbLine
10
-20
20
-3.5527136788005009e-14
30
0
11
-20
21
-4.0000000000000355
31
0
0
LINE
5
202
100
AcDbEntity
8
0
100
AcDbLine
10
-110.0000000000004
20
299.99999999999972
30
0
11
-110.00000000000041
21
303.99999999999972
31
0
0
LINE
5
203
100
AcDbEntity
8
0
100
AcDbLine
10
-70.000000000000398
20
303.99999999999983
30
0
11
-80.000000000000412
21
303.99999999999977
31
0
0
LINE
5
204
100
AcDbEntity
8
1
100
AcDbLine
10
-150.0000000000004
20
299.9999999999996
30
0
11
-3.907985046680551e-13
21
300
31
0
0
LINE
5
205
100
AcDbEntity
8
0
100
AcDbLine
10
-30.000000000000391
20
299.99999999999994
30
0
11
-30.000000000000398
21
303.99999999999989
31
0
0
LINE
5
206
100
AcDbEntity
8
0
100
AcDbLine
10
-90.000000000000412
20
303.99999999999977
30
0
11
-100.00000000000041
21
303.99999999999977
31
0
0
LINE
5
207
100
AcDbEntity
8
0
100
AcDbLine
10
-40.000000000000391
20
299.99999999999989
30
0
11
-40.000000000000398
21
303.99999999999989
31
0
0
LINE
5
208
100
AcDbEntity
8
0
100
AcDbLine
10
-30.000000000000398
20
303.99999999999989
30
0
11
-40.000000000000398
21
303.99999999999989
31
0
0
LINE
5
209
100
AcDbEntity
8
0
100
AcDbLine
10
-110.00000000000041
20
303.99999999999972
30
0
11
-120.00000000000041
21
303.99999999999972
31
0
0
LINE
5
210
100
AcDbEntity
8
0
100
AcDbLine
10
-50.000000000000391
20
299.99999999999989
30
0
11
-50.000000000000398
21
303.99999999999983
31
0
0
LINE
5
211
100
AcDbEntity
8
0
100
AcDbLine
10
-100.0000000000004
20
299.99999999999977
30
0
11
-100.00000000000041
21
303.99999999999977
31
0
0
LINE
5
212
100
AcDbEntity
8
0
100
AcDbLine
10
-20.000000000000391
20
299.99999999999994
30
0
11
-20.000000000000398
21
304
31
0
0
LINE
5
213
100
AcDbEntity
8
0
100
AcDbLine
10
-50.000000000000398
20
303.99999999999983
30
0
11
-60.000000000000398
21
303.99999999999983
31
0
0
LINE
5
214
100
AcDbEntity
8
0
100
AcDbLine
10
-130.0000000000004
20
303.99999999999966
30
0
11
-140.0000000000004
21
303.99999999999966
31
0
0
LINE
5
215
100
AcDbEntity
8
0
100
AcDbLine
10
-120.0000000000004
20
299.99999999999966
30
0
11
-120.00000000000041
21
303.99999999999972
31
0
0
LINE
5
216
100
AcDbEntity
8
0
100
AcDbLine
10
-60.000000000000391
20
299.99999999999989
30
0
11
-60.000000000000398
21
303.99999999999983
31
0
0
LWPOLYLINE
5
217
100
AcDbEntity
8
0
100
AcDbPolyline
90
2
70
1
43
0.0
10
-140.0000000000004
20
303.99999999999966
10
-140.0000000000004
20
299.99999999999966
0
LINE
5
218
100
AcDbEntity
8
0
100
AcDbLine
10
-10.000000000000391
20
299.99999999999994
30
0
11
-10.000000000000401
21
304
31
0
0
LINE
5
219
100
AcDbEntity
8
0
100
AcDbLine
10
-90.000000000000398
20
299.99999999999977
30
0
11
-90.000000000000412
21
303.99999999999977
31
0
0
LINE
5
220
100
AcDbEntity
8
0
100
AcDbLine
10
-70.000000000000398
20
299.99999999999983
30
0
11
-70.000000000000398
21
303.99999999999983
31
0
0
LINE
5
221
100
AcDbEntity
8
0
100
AcDbLine
10
-10.000000000000401
20
304
30
0
11
-20.000000000000398
21
304
31
0
0
LINE
5
222
100
AcDbEntity
8
0
100
AcDbLine
10
-130.0000000000004
20
299.99999999999966
30
0
11
-130.0000000000004
21
303.99999999999966
31
0
0
LINE
5
223
100
AcDbEntity
8
1
100
AcDbLine
10
-140.0000000000004
20
299.99999999999966
30
0
11
-130.0000000000004
21
299.99999999999966
31
0
0
LINE
5
224
100
AcDbEntity
8
0
100
AcDbLine
10
-80.000000000000398
20
299.99999999999977
30
0
11
-80.000000000000412
21
303.99999999999977
31
0
0
LINE
5
225
100
AcDbEntity
8
0
100
AcDbLine
10
230.0000000000004
20
299.99999999999977
30
0
11
230.00000000000043
21
303.99999999999977
31
0
0
LINE
5
226
100
AcDbEntity
8
0
100
AcDbLine
10
220
20
-4.0000000000000213
30
0
11
230
21
-4.0000000000000213
31
0
0
LINE
5
227
100
AcDbEntity
8
0
100
AcDbLine
10
220.0000000000004
20
303.99999999999983
30
0
11
230.00000000000043
21
303.99999999999977
31
0
0
LINE
5
228
100
AcDbEntity
8
0
100
AcDbLine
10
170.0000000000004
20
299.99999999999994
30
0
11
170.0000000000004
21
304
31
0
0
LINE
5
229
100
AcDbEntity
8
0
100
AcDbLine
10
154
20
0
30
0
11
154
21
-1.3069717935674063
31
0
0
LINE
5
230
100
AcDbEntity
8
0
100
AcDbLine
10
210.0000000000004
20
299.99999999999989
30
0
11
210.0000000000004
21
303.99999999999983
31
0
0
LINE
5
231
100
AcDbEntity
8
0
100
AcDbLine
10
240
20
-4.0000000000000213
30
0
11
250
21
-4.0000000000000213
31
0
0
LINE
5
232
100
AcDbEntity
8
0
100
AcDbLine
10
154
20
-20
30
0
11
150
21
-20
31
0
0
LINE
5
233
100
AcDbEntity
8
0
100
AcDbLine
10
260.0000000000004
20
299.99999999999972
30
0
11
260.00000000000045
21
303.99999999999972
31
0
0
LINE
5
234
100
AcDbEntity
8
0
100
AcDbLine
10
160.00000000000043
20
304
30
0
11
170.0000000000004
21
304
31
0
0
LINE
5
235
100
AcDbEntity
8
1
100
AcDbLine
10
300
20
-3.5527136788005009e-14
30
0
11
150
21
-3.5527136788005009e-14
31
0
0
LINE
5
236
100
AcDbEntity
8
0
100
AcDbLine
10
260
20
-3.5527136788005009e-14
30
0
11
260
21
-4.0000000000000213
31
0
0
LINE
5
237
100
AcDbEntity
8
0
100
AcDbLine
10
240.0000000000004
20
299.99999999999977
30
0
11
240.00000000000043
21
303.99999999999977
31
0
0
LINE
5
238
100
AcDbEntity
8
0
100
AcDbLine
10
230
20
-3.5527136788005009e-14
30
0
11
230
21
-4.0000000000000213
31
0
0
LINE
5
239
100
AcDbEntity
8
0
100
AcDbLine
10
180
20
-3.5527136788005009e-14
30
0
11
180
21
-4.0000000000000213
31
0
0
LINE
5
240
100
AcDbEntity
8
0
100
AcDbLine
10
150
20
-30
30
0
11
154
21
-30
31
0
0
LINE
5
241
100
AcDbEntity
8
0
100
AcDbLine
10
250
20
-3.5527136788005009e-14
30
0
11
250
21
-4.0000000000000213
31
0
0
LINE
5
242
100
AcDbEntity
8
0
100
AcDbLine
10
240
20
-3.5527136788005009e-14
30
0
11
240
21
-4.0000000000000213
31
0
0
LINE
5
243
100
AcDbEntity
8
0
100
AcDbLine
10
280.0000000000004
20
299.99999999999966
30
0
11
280.00000000000045
21
303.99999999999966
31
0
0
LINE
5
244
100
AcDbEntity
8
0
100
AcDbLine
10
260
20
-4.0000000000000213
30
0
11
270
21
-4.0000000000000213
31
0
0
LINE
5
245
100
AcDbEntity
8
0
100
AcDbLine
10
180
20
-4.0000000000000213
30
0
11
190
21
-4.0000000000000213
31
0
0
LINE
5
246
100
AcDbEntity
8
0
100
AcDbLine
10
154
20
-10
30
0
11
154
21
0
31
0
0
LINE
5
247
100
AcDbEntity
8
0
100
AcDbLine
10
154
20
-100
30
0
11
150
21
-100
31
0
0
LINE
5
248
100
AcDbEntity
8
0
100
AcDbLine
10
150
20
-30
30
0
11
150
21
-40
31
0
0
LINE
5
249
100
AcDbEntity
8
0
100
AcDbLine
10
150
20
-110
30
0
11
154
21
-110
31
0
0
LWPOLYLINE
5
250
100
AcDbEntity
8
0
100
AcDbPolyline
90
4
70
1
43
0.0
10
150
20
-150
10
154
20
-150
10
154
20
-140
10
150
20
-140
0
LINE
5
251
100
AcDbEntity
8
0
100
AcDbLine
10
154
20
-110
30
0
11
154
21
-100
31
0
0
LINE
5
252
100
AcDbEntity
8
0
100
AcDbLine
10
154
20
-90
30
0
11
154
21
-80
31
0
0
LINE
5
253
100
AcDbEntity
8
0
100
AcDbLine
10
154
20
-120
30
0
11
150
21
-120
31
0
0
LINE
5
254
100
AcDbEntity
8
0
100
AcDbLine
10
150
20
-140
30
0
11
150
21
-130
31
0
0
LINE
5
255
100
AcDbEntity
8
0
100
AcDbLine
10
150
20
-90
30
0
11
154
21
-90
31
0
0
LINE
5
256
100
AcDbEntity
8
0
100
AcDbLine
10
300
20
299.99999999999994
30
0
11
300
21
-3.5527136788005009e-14
31
0
0
LINE
5
257
100
AcDbEntity
8
0
100
AcDbLine
10
260.00000000000045
20
303.99999999999972
30
0
11
270.00000000000045
21
303.99999999999972
31
0
0
LINE
5
258
100
AcDbEntity
8
0
100
AcDbLine
10
160
20
-3.5527136788005009e-14
30
0
11
160
21
-4.0000000000000213
31
0
0
LWPOLYLINE
5
259
100
AcDbEntity
8
0
100
AcDbPolyline
90
2
70
1
43
0.0
10
290
20
-4.0000000000000213
10
290
20
-3.5527136788005009e-14
0
LINE
5
260
100
AcDbEntity
8
1
100
AcDbLine
10
290.0000000000004
20
299.99999999999966
30
0
11
280.0000000000004
21
299.99999999999966
31
0
0
LINE
5
261
100
AcDbEntity
8
0
100
AcDbLine
10
200.0000000000004
20
303.99999999999983
30
0
11
210.0000000000004
21
303.99999999999983
31
0
0
LINE
5
262
100
AcDbEntity
8
0
100
AcDbLine
10
190.0000000000004
20
299.99999999999989
30
0
11
190.0000000000004
21
303.99999999999989
31
0
0
LWPOLYLINE
5
263
100
AcDbEntity
8
0
100
AcDbPolyline
90
2
70
1
43
0.0
10
290.00000000000045
20
303.99999999999966
10
290.0000000000004
20
299.99999999999966
0
LINE
5
264
100
AcDbEntity
8
0
100
AcDbLine
10
160.0000000000004
20
299.99999999999994
30
0
11
160.00000000000043
21
304
31
0
0
LINE
5
265
100
AcDbEntity
8
0
100
AcDbLine
10
150
20
-70
30
0
11
150
21
-80
31
0
0
LINE
5
266
100
AcDbEntity
8
0
100
AcDbLine
10
150
20
0
30
0
11
150
21
-150
31
0
0
LINE
5
267
100
AcDbEntity
8
0
100
AcDbLine
10
200
20
-3.5527136788005009e-14
30
0
11
200
21
-4.0000000000000213
31
0
0
LINE
5
268
100
AcDbEntity
8
0
100
AcDbLine
10
150
20
-50
30
0
11
154
21
-50
31
0
0
LINE
5
269
100
AcDbEntity
8
0
100
AcDbLine
10
280
20
-4.0000000000000213
30
0
11
290
21
-4.0000000000000213
31
0
0
LINE
5
270
100
AcDbEntity
8
0
100
AcDbLine
10
154
20
-70
30
0
11
154
21
-60
31
0
0
LINE
5
271
100
AcDbEntity
8
0
100
AcDbLine
10
200
20
-4.0000000000000213
30
0
11
210
21
-4.0000000000000213
31
0
0
LINE
5
272
100
AcDbEntity
8
0
100
AcDbLine
10
270
20
-3.5527136788005009e-14
30
0
11
270
21
-4.0000000000000213
31
0
0
LINE
5
273
100
AcDbEntity
8
0
100
AcDbLine
10
250.0000000000004
20
299.99999999999977
30
0
11
250.00000000000043
21
303.99999999999977
31
0
0
LINE
5
274
100
AcDbEntity
8
0
100
AcDbLine
10
280
20
-3.5527136788005009e-14
30
0
11
280
21
-4.0000000000000213
31
0
0
LINE
5
275
100
AcDbEntity
8
0
100
AcDbLine
10
150
20
-50
30
0
11
150
21
-50.891263267638607
31
0
0
LINE
5
276
100
AcDbEntity
8
0
100
AcDbLine
10
240.00000000000043
20
303.99999999999977
30
0
11
250.00000000000043
21
303.99999999999977
31
0
0
LINE
5
277
100
AcDbEntity
8
1
100
AcDbLine
10
290
20
-3.5527136788005009e-14
30
0
11
280
21
-3.5527136788005009e-14
31
0
0
LINE
5
278
100
AcDbEntity
8
0
100
AcDbLine
10
200.0000000000004
20
299.99999999999989
30
0
11
200.0000000000004
21
303.99999999999983
31
0
0
LINE
5
279
100
AcDbEntity
8
0
100
AcDbLine
10
150
20
-70
30
0
11
154
21
-70
31
0
0
LINE
5
280
100
AcDbEntity
8
0
100
AcDbLine
10
210
20
-3.5527136788005009e-14
30
0
11
210
21
-4.0000000000000213
31
0
0
LINE
5
281
100
AcDbEntity
8
1
100
AcDbLine
10
300.0000000000004
20
299.9999999999996
30
0
11
150.0000000000004
21
300
31
0
0
LINE
5
282
100
AcDbEntity
8
0
100
AcDbLine
10
270.0000000000004
20
299.99999999999966
30
0
11
270.00000000000045
21
303.99999999999972
31
0
0
LINE
5
283
100
AcDbEntity
8
0
100
AcDbLine
10
150
20
-60
30
0
11
150
21
-50
31
0
0
LINE
5
284
100
AcDbEntity
8
0
100
AcDbLine
10
154
20
-30
30
0
11
154
21
-20
31
0
0
LINE
5
285
100
AcDbEntity
8
0
100
AcDbLine
10
150
20
-120
30
0
11
150
21
-110
31
0
0
LINE
5
286
100
AcDbEntity
8
0
100
AcDbLine
10
280.00000000000045
20
303.99999999999966
30
0
11
290.00000000000045
21
303.99999999999966
31
0
0
LINE
5
287
100
AcDbEntity
8
0
100
AcDbLine
10
160
20
-4.0000000000000213
30
0
11
170
21
-4.0000000000000213
31
0
0
LINE
5
288
100
AcDbEntity
8
0
100
AcDbLine
10
180.0000000000004
20
299.99999999999994
30
0
11
180.0000000000004
21
303.99999999999989
31
0
0
LINE
5
289
100
AcDbEntity
8
0
100
AcDbLine
10
190
20
-3.5527136788005009e-14
30
0
11
190
21
-4.0000000000000213
31
0
0
LINE
5
290
100
AcDbEntity
8
0
100
AcDbLine
10
154
20
-50
30
0
11
154
21
-40
31
0
0
LINE
5
291
100
AcDbEntity
8
0
100
AcDbLine
10
180.0000000000004
20
303.99999999999989
30
0
11
190.0000000000004
21
303.99999999999989
31
0
0
LINE
5
292
100
AcDbEntity
8
0
100
AcDbLine
10
154
20
-80
30
0
11
150
21
-80
31
0
0
LINE
5
293
100
AcDbEntity
8
0
100
AcDbLine
10
220.0000000000004
20
299.99999999999983
30
0
11
220.0000000000004
21
303.99999999999983
31
0
0
LINE
5
294
100
AcDbEntity
8
0
100
AcDbLine
10
150
20
-10
30
0
11
154
21
-10
31
0
0
LINE
5
295
100
AcDbEntity
8
0
100
AcDbLine
10
154
20
-60
30
0
11
150
21
-60
31
0
0
LINE
5
296
100
AcDbEntity
8
0
100
AcDbLine
10
154
20
0
30
0
11
150
21
0
31
0
0
LINE
5
297
100
AcDbEntity
8
0
100
AcDbLine
10
150
20
-90
30
0
11
150
21
-100
31
0
0
LINE
5
298
100
AcDbEntity
8
0
100
AcDbLine
10
170
20
-3.5527136788005009e-14
30
0
11
170
21
-4.0000000000000213
31
0
0
LINE
5
299
100
AcDbEntity
8
0
100
AcDbLine
10
154
20
-130
30
0
11
154
21
-120
31
0
0
LINE
5
300
100
AcDbEntity
8
0
100
AcDbLine
10
154
20
-40
30
0
11
150
21
-40
31
0
0
LINE
5
301
100
AcDbEntity
8
0
100
AcDbLine
10
150
20
-10
30
0
11
150
21
-20
31
0
0
LINE
5
302
100
AcDbEntity
8
0
100
AcDbLine
10
220
20
-3.5527136788005009e-14
30
0
11
220
21
-4.0000000000000213
31
0
0
LINE
5
303
100
AcDbEntity
8
0
100
AcDbLine
10
150
20
-130
30
0
11
154
21
-130
31
0
0
LINE
5
304
100
AcDbEntity
8
0
100
AcDbLine
10
149.99999999999943
20
370.00000000000045
30
0
11
149.9999999999994
21
380.00000000000045
31
0
0
LINE
5
305
100
AcDbEntity
8
0
100
AcDbLine
10
149.99999999999943
20
370.00000000000045
30
0
11
153.99999999999943
21
370.00000000000045
31
0
0
LINE
5
306
100
AcDbEntity
8
0
100
AcDbLine
10
153.9999999999994
20
380.00000000000045
30
0
11
149.9999999999994
21
380.00000000000045
31
0
0
LINE
5
307
100
AcDbEntity
8
0
100
AcDbLine
10
153.9999999999996
20
300.00000000000034
30
0
11
153.9999999999996
21
301.30697179356775
31
0
0
LINE
5
308
100
AcDbEntity
8
0
100
AcDbLine
10
153.9999999999996
20
310.00000000000034
30
0
11
153.9999999999996
21
300.00000000000034
31
0
0
LINE
5
309
100
AcDbEntity
8
0
100
AcDbLine
10
153.99999999999935
20
400.00000000000045
30
0
11
149.99999999999935
21
400.00000000000045
31
0
0
LINE
5
310
100
AcDbEntity
8
0
100
AcDbLine
10
153.99999999999923
20
440.00000000000045
30
0
11
149.99999999999923
21
440.00000000000045
31
0
0
LINE
5
311
100
AcDbEntity
8
0
100
AcDbLine
10
153.99999999999932
20
410.00000000000045
30
0
11
153.99999999999935
21
400.00000000000045
31
0
0
LINE
5
312
100
AcDbEntity
8
0
100
AcDbLine
10
114.99999999999932
20
410.00000000000028
30
0
11
114.99999999999928
21
430.00000000000028
31
0
0
LINE
5
313
100
AcDbEntity
8
0
100
AcDbLine
10
149.9999999999996
20
310.00000000000034
30
0
11
149.99999999999955
21
320.00000000000045
31
0
0
LINE
5
314
100
AcDbEntity
8
0
100
AcDbLine
10
153.99999999999943
20
370.00000000000045
30
0
11
153.99999999999946
21
360.00000000000045
31
0
0
LINE
5
315
100
AcDbEntity
8
0
100
AcDbLine
10
153.99999999999946
20
360.00000000000045
30
0
11
149.99999999999946
21
360.00000000000045
31
0
0
LINE
5
316
100
AcDbEntity
8
0
100
AcDbLine
10
149.99999999999929
20
420.00000000000045
30
0
11
149.99999999999932
21
410.00000000000045
31
0
0
LINE
5
317
100
AcDbEntity
8
0
100
AcDbLine
10
153.99999999999937
20
390.00000000000045
30
0
11
153.9999999999994
21
380.00000000000045
31
0
0
LINE
5
318
100
AcDbEntity
8
0
100
AcDbLine
10
153.99999999999952
20
340.00000000000045
30
0
11
149.99999999999949
21
340.00000000000045
31
0
0
LINE
5
319
100
AcDbEntity
8
0
100
AcDbLine
10
149.9999999999996
20
310.00000000000034
30
0
11
153.9999999999996
21
310.00000000000034
31
0
0
LINE
5
320
100
AcDbEntity
8
0
100
AcDbLine
10
153.99999999999923
20
450.00000000000045
30
0
11
153.99999999999923
21
440.00000000000045
31
0
0
LINE
5
321
100
AcDbEntity
8
0
100
AcDbLine
10
153.9999999999996
20
300.00000000000034
30
0
11
149.9999999999996
21
300.00000000000034
31
0
0
LINE
5
322
100
AcDbEntity
8
0
100
AcDbLine
10
-6.2527760746888806e-13
20
390
30
0
11
-6.513308411134251e-13
21
400
31
0
0
LINE
5
323
100
AcDbEntity
8
0
100
AcDbLine
10
-4.0000000000006244
20
390
30
0
11
-4.0000000000005986
21
380
31
0
0
LINE
5
324
100
AcDbEntity
8
0
100
AcDbLine
10
-7.5554377569157316e-13
20
440
30
0
11
-7.2949054204703612e-13
21
430
31
0
0
LINE
5
325
100
AcDbEntity
8
0
100
AcDbLine
10
-4.0000000000005205
20
350
30
0
11
-4.0000000000004947
21
340
31
0
0
LINE
5
326
100
AcDbEntity
8
0
100
AcDbLine
10
-4.000000000000755
20
440
30
0
11
-7.5554377569157316e-13
21
440
31
0
0
LINE
5
327
100
AcDbEntity
8
0
100
AcDbLine
10
-4.0000000000003908
20
299.99999999999994
30
0
11
-3.9079850466805505e-13
21
299.99999999999994
31
0
0
LINE
5
328
100
AcDbEntity
8
0
100
AcDbLine
10
153.99999999999955
20
320.00000000000045
30
0
11
149.99999999999955
21
320.00000000000045
31
0
0
LINE
5
329
100
AcDbEntity
8
0
100
AcDbLine
10
149.99999999999932
20
410.00000000000045
30
0
11
153.99999999999932
21
410.00000000000045
31
0
0
LINE
5
330
100
AcDbEntity
8
0
100
AcDbLine
10
149.99999999999955
20
330.00000000000045
30
0
11
153.99999999999955
21
330.00000000000045
31
0
0
LINE
5
331
100
AcDbEntity
8
0
100
AcDbLine
10
149.99999999999949
20
350.00000000000045
30
0
11
149.99999999999949
21
350.89126326763903
31
0
0
LINE
5
332
100
AcDbEntity
8
0
100
AcDbLine
10
153.99999999999949
20
350.00000000000045
30
0
11
153.99999999999952
21
340.00000000000045
31
0
0
LINE
5
333
100
AcDbEntity
8
0
100
AcDbLine
10
149.99999999999949
20
350.00000000000045
30
0
11
153.99999999999949
21
350.00000000000045
31
0
0
LINE
5
334
100
AcDbEntity
8
0
100
AcDbLine
10
-4.0000000000006768
20
410
30
0
11
-4.000000000000651
21
400
31
0
0
LINE
5
335
100
AcDbEntity
8
0
100
AcDbLine
10
-4.0000000000007292
20
430
30
0
11
-4.0000000000007034
21
420
31
0
0
LINE
5
336
100
AcDbEntity
8
0
100
AcDbLine
10
149.99999999999937
20
390.00000000000045
30
0
11
153.99999999999937
21
390.00000000000045
31
0
0
LINE
5
337
100
AcDbEntity
8
0
100
AcDbLine
10
-4.0000000000004166
20
309.99999999999994
30
0
11
-4.0000000000003908
21
299.99999999999994
31
0
0
LINE
5
338
100
AcDbEntity
8
0
100
AcDbLine
10
153.99999999999929
20
420.00000000000045
30
0
11
149.99999999999929
21
420.00000000000045
31
0
0
LINE
5
339
100
AcDbEntity
8
0
100
AcDbLine
10
-7.2949054204703612e-13
20
430
30
0
11
-4.0000000000007292
21
430
31
0
0
LINE
5
340
100
AcDbEntity
8
0
100
AcDbLine
10
153.99999999999926
20
430.00000000000045
30
0
11
153.99999999999929
21
420.00000000000045
31
0
0
LINE
5
341
100
AcDbEntity
8
0
100
AcDbLine
10
-6.2527760746888806e-13
20
390
30
0
11
-4.0000000000006244
21
390
31
0
0
LINE
5
342
100
AcDbEntity
8
0
100
AcDbLine
10
153.99999999999955
20
330.00000000000045
30
0
11
153.99999999999955
21
320.00000000000045
31
0
0
LINE
5
343
100
AcDbEntity
8
0
100
AcDbLine
10
149.99999999999937
20
390.00000000000045
30
0
11
149.99999999999935
21
400.00000000000045
31
0
0
LINE
5
344
100
AcDbEntity
8
0
100
AcDbLine
10
-4.0000000000007816
20
450
30
0
11
-4.000000000000755
21
440
31
0
0
LINE
5
345
100
AcDbEntity
8
0
100
AcDbLine
10
-5.4711790653527714e-13
20
360
30
0
11
-5.210646728907401e-13
21
350
31
0
0
LINE
5
346
100
AcDbEntity
8
0
100
AcDbLine
10
-4.1685173831259204e-13
20
309.99999999999994
30
0
11
-4.4290497195712908e-13
21
320
31
0
0
LINE
5
347
100
AcDbEntity
8
0
100
AcDbLine
10
149.99999999999955
20
330.00000000000045
30
0
11
149.99999999999949
21
340.00000000000045
31
0
0
LINE
5
348
100
AcDbEntity
8
0
100
AcDbLine
10
-7.815970093361102e-13
20
450
30
0
11
-4.0000000000007816
21
450
31
0
0
LINE
5
349
100
AcDbEntity
8
0
100
AcDbLine
10
-4.1685173831259204e-13
20
309.99999999999994
30
0
11
-4.0000000000004166
21
309.99999999999994
31
0
0
LINE
5
350
100
AcDbEntity
8
0
100
AcDbLine
10
-4.0000000000005986
20
380
30
0
11
-5.9922437382435122e-13
21
380
31
0
0
LINE
5
351
100
AcDbEntity
8
0
100
AcDbLine
10
-5.210646728907401e-13
20
350
30
0
11
-5.2338670190579825e-13
21
350.89126326763852
31
0
0
LINE
5
352
100
AcDbEntity
8
0
100
AcDbLine
10
-4.0000000000005471
20
360
30
0
11
-5.4711790653527714e-13
21
360
31
0
0
LINE
5
353
100
AcDbEntity
8
0
100
AcDbLine
10
-6.7738407475796214e-13
20
410
30
0
11
-4.0000000000006768
21
410
31
0
0
LINE
5
354
100
AcDbEntity
8
0
100
AcDbLine
10
74.999999999999318
20
410.00000000000023
30
0
11
114.99999999999932
21
410.00000000000028
31
0
0
LINE
5
355
100
AcDbEntity
8
0
100
AcDbLine
10
-4.0000000000004423
20
320
30
0
11
-4.4290497195712908e-13
21
320
31
0
0
LINE
5
356
100
AcDbEntity
8
0
100
AcDbLine
10
-5.7317114017981408e-13
20
370
30
0
11
-5.9922437382435122e-13
21
380
31
0
0
LINE
5
357
100
AcDbEntity
8
0
100
AcDbLine
10
114.99999999999928
20
430.00000000000028
30
0
11
74.999999999999275
21
430.00000000000023
31
0
0
LINE
5
358
100
AcDbEntity
8
0
100
AcDbLine
10
-4.6895820560166612e-13
20
330
30
0
11
-4.000000000000469
21
330
31
0
0
LINE
5
359
100
AcDbEntity
8
0
100
AcDbLine
10
149.99999999999926
20
430.00000000000045
30
0
11
153.99999999999926
21
430.00000000000045
31
0
0
LINE
5
360
100
AcDbEntity
8
0
100
AcDbLine
10
-4.000000000000651
20
400
30
0
11
-6.513308411134251e-13
21
400
31
0
0
LINE
5
361
100
AcDbEntity
8
0
100
AcDbLine
10
-4.0000000000004947
20
340
30
0
11
-4.9501143924620306e-13
21
340
31
0
0
LINE
5
362
100
AcDbEntity
8
0
100
AcDbLine
10
34.999999999999318
20
410.00000000000006
30
0
11
34.999999999999275
21
430.00000000000006
31
0
0
LINE
5
363
100
AcDbEntity
8
0
100
AcDbLine
10
-5.210646728907401e-13
20
350
30
0
11
-4.0000000000005205
21
350
31
0
0
LINE
5
364
100
AcDbEntity
8
0
100
AcDbLine
10
-4.6895820560166612e-13
20
330
30
0
11
-4.9501143924620306e-13
21
340
31
0
0
LINE
5
365
100
AcDbEntity
8
0
100
AcDbLine
10
74.999999999999318
20
410.00000000000023
30
0
11
34.999999999999318
21
410.00000000000006
31
0
0
LINE
5
366
100
AcDbEntity
8
0
100
AcDbLine
10
-4.0000000000003908
20
299.99999999999994
30
0
11
-4.0000000000003935
21
301.30697179356736
31
0
0
LINE
5
367
100
AcDbEntity
8
0
100
AcDbLine
10
34.999999999999275
20
430.00000000000006
30
0
11
74.999999999999275
21
430.00000000000023
31
0
0
LINE
5
368
100
AcDbEntity
8
0
100
AcDbLine
10
-4.000000000000469
20
330
30
0
11
-4.0000000000004423
21
320
31
0
0
LINE
5
369
100
AcDbEntity
8
0
100
AcDbLine
10
149.9999999999992
20
450.00000000000045
30
0
11
153.99999999999923
21
450.00000000000045
31
0
0
LINE
5
370
100
AcDbEntity
8
0
100
AcDbLine
10
-7.0343730840249908e-13
20
420
30
0
11
-6.7738407475796214e-13
21
410
31
0
0
LINE
5
371
100
AcDbEntity
8
0
100
AcDbLine
10
-4.0000000000007034
20
420
30
0
11
-7.0343730840249908e-13
21
420
31
0
0
LINE
5
372
100
AcDbEntity
8
0
100
AcDbLine
10
149.99999999999946
20
360.00000000000045
30
0
11
149.99999999999949
21
350.00000000000045
31
0
0
LINE
5
373
100
AcDbEntity
8
0
100
AcDbLine
10
149.99999999999923
20
440.00000000000045
30
0
11
149.99999999999926
21
430.00000000000045
31
0
0
LINE
5
374
100
AcDbEntity
8
0
100
AcDbLine
10
-5.7317114017981408e-13
20
370
30
0
11
-4.0000000000005729
21
370
31
0
0
LINE
5
375
100
AcDbEntity
8
0
100
AcDbLine
10
-7.815970093361102e-13
20
450
30
0
11
149.9999999999992
21
450.00000000000045
31
0
0
LINE
5
376
100
AcDbEntity
8
0
100
AcDbLine
10
-4.0000000000005729
20
370
30
0
11
-4.0000000000005471
21
360
31
0
0
LINE
5
377
100
AcDbEntity
8
0
100
AcDbLine
10
290
20
-3.5527136788005009e-14
30
0
11
300
21
-3.5527136788005009e-14
31
0
0
LINE
5
378
100
AcDbEntity
8
0
100
AcDbLine
10
270
20
-3.5527136788005009e-14
30
0
11
280
21
-3.5527136788005009e-14
31
0
0
LINE
5
379
100
AcDbEntity
8
0
100
AcDbLine
10
260
20
-3.5527136788005009e-14
30
0
11
250
21
-3.5527136788005009e-14
31
0
0
LINE
5
380
100
AcDbEntity
8
0
100
AcDbLine
10
240
20
-3.5527136788005009e-14
30
0
11
230
21
-3.5527136788005009e-14
31
0
0
LINE
5
381
100
AcDbEntity
8
0
100
AcDbLine
10
220
20
-3.5527136788005009e-14
30
0
11
210
21
-3.5527136788005009e-14
31
0
0
LINE
5
382
100
AcDbEntity
8
0
100
AcDbLine
10
200
20
-3.5527136788005009e-14
30
0
11
190
21
-3.5527136788005009e-14
31
0
0
LINE
5
383
100
AcDbEntity
8
0
100
AcDbLine
10
180
20
-3.5527136788005009e-14
30
0
11
170
21
-3.5527136788005009e-14
31
0
0
LINE
5
384
100
AcDbEntity
8
0
100
AcDbLine
10
160
20
-3.5527136788005009e-14
30
0
11
150
21
0
31
0
0
LINE
5
385
100
AcDbEntity
8
0
100
AcDbLine
10
290.0000000000004
20
299.99999999999966
30
0
11
300.0000000000004
21
299.9999999999996
31
0
0
LINE
5
386
100
AcDbEntity
8
0
100
AcDbLine
10
270.0000000000004
20
299.99999999999966
30
0
11
280.0000000000004
21
299.99999999999966
31
0
0
LINE
5
387
100
AcDbEntity
8
0
100
AcDbLine
10
250.0000000000004
20
299.99999999999977
30
0
11
260.0000000000004
21
299.99999999999972
31
0
0
LINE
5
388
100
AcDbEntity
8
0
100
AcDbLine
10
230.0000000000004
20
299.99999999999977
30
0
11
240.0000000000004
21
299.99999999999977
31
0
0
LINE
5
389
100
AcDbEntity
8
0
100
AcDbLine
10
210.0000000000004
20
299.99999999999989
30
0
11
220.0000000000004
21
299.99999999999983
31
0
0
LINE
5
390
100
AcDbEntity
8
0
100
AcDbLine
10
190.0000000000004
20
299.99999999999989
30
0
11
200.0000000000004
21
299.99999999999989
31
0
0
LINE
5
391
100
AcDbEntity
8
0
100
AcDbLine
10
170.0000000000004
20
299.99999999999994
30
0
11
180.0000000000004
21
299.99999999999994
31
0
0
LINE
5
392
100
AcDbEntity
8
0
100
AcDbLine
10
150.0000000000004
20
300
30
0
11
160.0000000000004
21
299.99999999999994
31
0
0
LINE
5
393
100
AcDbEntity
8
0
100
AcDbLine
10
-140.0000000000004
20
299.99999999999966
30
0
11
-150.0000000000004
21
299.9999999999996
31
0
0
LINE
5
394
100
AcDbEntity
8
0
100
AcDbLine
10
-150
20
299.99999999999994
30
0
11
-150
21
-3.5527136788005009e-14
31
0
0
LINE
5
395
100
AcDbEntity
8
0
100
AcDbLine
10
-140
20
-3.5527136788005009e-14
30
0
11
-150
21
-3.5527136788005009e-14
31
0
0
LINE
5
396
100
AcDbEntity
8
0
100
AcDbLine
10
-130
20
-3.5527136788005009e-14
30
0
11
-120
21
-3.5527136788005009e-14
31
0
0
LINE
5
397
100
AcDbEntity
8
0
100
AcDbLine
10
-110
20
-3.5527136788005009e-14
30
0
11
-100
21
-3.5527136788005009e-14
31
0
0
LINE
5
398
100
AcDbEntity
8
0
100
AcDbLine
10
-90
20
-3.5527136788005009e-14
30
0
11
-80
21
-3.5527136788005009e-14
31
0
0
LINE
5
399
100
AcDbEntity
8
0
100
AcDbLine
10
-70
20
-3.5527136788005009e-14
30
0
11
-60
21
-3.5527136788005009e-14
31
0
0
LINE
5
400
100
AcDbEntity
8
0
100
AcDbLine
10
-50
20
-3.5527136788005009e-14
30
0
11
-40
21
-3.5527136788005009e-14
31
0
0
LINE
5
401
100
AcDbEntity
8
0
100
AcDbLine
10
-30
20
-3.5527136788005009e-14
30
0
11
-20
21
-3.5527136788005009e-14
31
0
0
LINE
5
402
100
AcDbEntity
8
0
100
AcDbLine
10
-10
20
-3.5527136788005009e-14
30
0
11
-3.9999999999999996
21
0
31
0
0
LINE
5
403
100
AcDbEntity
8
1
100
AcDbLine
10
115
20
-120
30
0
11
35
21
-120
31
0
0
LINE
5
404
100
AcDbEntity
8
1
100
AcDbLine
10
55
20
-110
30
0
11
55
21
-130
31
0
0
LINE
5
405
100
AcDbEntity
8
1
100
AcDbLine
10
95
20
-110
30
0
11
95
21
-130
31
0
0
LINE
5
406
100
AcDbEntity
8
1
100
AcDbLine
10
93
20
-110
30
0
11
93
21
-130
31
0
0
LINE
5
407
100
AcDbEntity
8
1
100
AcDbLine
10
97
20
-110
30
0
11
97
21
-130
31
0
0
LINE
5
408
100
AcDbEntity
8
1
100
AcDbLine
10
53
20
-110
30
0
11
53
21
-130
31
0
0
LINE
5
409
100
AcDbEntity
8
1
100
AcDbLine
10
57
20
-110
30
0
11
57
21
-130
31
0
0
LINE
5
410
100
AcDbEntity
8
0
100
AcDbLine
10
57
20
-110
30
0
11
57
21
-120
31
0
0
LINE
5
411
100
AcDbEntity
8
0
100
AcDbLine
10
57
20
-120
30
0
11
53
21
-120
31
0
0
LINE
5
412
100
AcDbEntity
8
0
100
AcDbLine
10
53
20
-120
30
0
11
53
21
-130
31
0
0
LINE
5
413
100
AcDbEntity
8
0
100
AcDbLine
10
97
20
-130
30
0
11
97
21
-120
31
0
0
LINE
5
414
100
AcDbEntity
8
0
100
AcDbLine
10
93
20
-120
30
0
11
97
21
-120
31
0
0
LINE
5
415
100
AcDbEntity
8
0
100
AcDbLine
10
93
20
-110
30
0
11
93
21
-120
31
0
0
LINE
5
416
100
AcDbEntity
8
0
100
AcDbLine
10
92.999999999999289
20
420.00000000000023
30
0
11
96.999999999999289
21
420.00000000000028
31
0
0
LINE
5
417
100
AcDbEntity
8
1
100
AcDbLine
10
96.999999999999318
20
410.00000000000028
30
0
11
96.999999999999261
21
430.00000000000028
31
0
0
LINE
5
418
100
AcDbEntity
8
1
100
AcDbLine
10
92.999999999999332
20
410.00000000000023
30
0
11
92.999999999999275
21
430.00000000000023
31
0
0
LINE
5
419
100
AcDbEntity
8
0
100
AcDbLine
10
96.999999999999261
20
430.00000000000028
30
0
11
96.999999999999289
21
420.00000000000028
31
0
0
LINE
5
420
100
AcDbEntity
8
1
100
AcDbLine
10
94.999999999999318
20
410.00000000000023
30
0
11
94.999999999999275
21
430.00000000000023
31
0
0
LINE
5
421
100
AcDbEntity
8
0
100
AcDbLine
10
92.999999999999332
20
410.00000000000023
30
0
11
92.999999999999289
21
420.00000000000023
31
0
0
LINE
5
422
100
AcDbEntity
8
0
100
AcDbLine
10
52.999999999999297
20
420.00000000000011
30
0
11
52.999999999999268
21
430.00000000000011
31
0
0
LINE
5
423
100
AcDbEntity
8
1
100
AcDbLine
10
56.999999999999325
20
410.00000000000011
30
0
11
56.999999999999275
21
430.00000000000011
31
0
0
LINE
5
424
100
AcDbEntity
8
1
100
AcDbLine
10
52.999999999999325
20
410.00000000000011
30
0
11
52.999999999999268
21
430.00000000000011
31
0
0
LINE
5
425
100
AcDbEntity
8
1
100
AcDbLine
10
114.99999999999929
20
420.00000000000028
30
0
11
34.999999999999297
21
420.00000000000006
31
0
0
LINE
5
426
100
AcDbEntity
8
0
100
AcDbLine
10
56.999999999999325
20
410.00000000000011
30
0
11
56.999999999999304
21
420.00000000000011
31
0
0
LINE
5
427
100
AcDbEntity
8
0
100
AcDbLine
10
56.999999999999304
20
420.00000000000011
30
0
11
52.999999999999297
21
420.00000000000011
31
0
0
LINE
5
428
100
AcDbEntity
8
1
100
AcDbLine
10
54.999999999999325
20
410.00000000000011
30
0
11
54.999999999999275
21
430.00000000000011
31
0
0
LWPOLYLINE
5
429
100
AcDbEntity
8
0
100
AcDbPolyline
90
4
70
1
43
0.0
10
162.95604294463817
20
-12.981274404560876
10
292.95604294463817
20
-12.981274404560876
10
292.95604294463817
20
-162.98127440456088
10
162.95604294463817
20
-162.98127440456088
0
LWPOLYLINE
5
430
100
AcDbEntity
8
0
100
AcDbPolyline
90
4
70
1
43
0.0
10
162.95604294463774
20
312.9812744045613
10
292.95604294463777
20
312.98127440456165
10
292.95604294463737
20
462.98127440456165
10
162.95604294463737
20
462.9812744045613
0
ENDSEC
0
SECTION
2
OBJECTS
0
DICTIONARY
5
C
100
AcDbDictionary
3
ACAD_GROUP
350
D
3
ACAD_MLINESTYLE
350
17
0
DICTIONARY
5
D
100
AcDbDictionary
0
DICTIONARY
5
1A
330
C
100
AcDbDictionary
0
DICTIONARY
5
17
100
AcDbDictionary
0
ENDSEC
0
EOF
