0
SECTION
2
HEADER
9
$INSUNITS
70
4
9
$ACADVER
1
AC1014
9
$HANDSEED
5
FFFF
0
ENDSEC
0
SECTION
2
TABLES
0
TABLE
2
VPORT
5
8
100
AcDbSymbolTable
0
ENDTAB
0
TABLE
2
LTYPE
5
5
100
AcDbSymbolTable
0
LTYPE
5
14
100
AcDbSymbolTableRecord
100
AcDbLinetypeTableRecord
2
BYBLOCK
70
0
0
LTYPE
5
15
100
AcDbSymbolTableRecord
100
AcDbLinetypeTableRecord
2
BYLAYER
70
0
0
LTYPE
5
16
100
AcDbSymbolTableRecord
100
AcDbLinetypeTableRecord
2
DASHED
70
0
3
Dashed __ __ __ __ __ __ __ __ __ __ __ __ __ _
72
65
73
2
40
0.75
49
0.5
74
0
49
-0.25
74
0
0
ENDTAB
0
TABLE
2
LAYER
5
2
100
AcDbSymbolTable
70
3
0
LAYER
5
50
100
AcDbSymbolTableRecord
100
AcDbLayerTableRecord
2
1
70
0
62
7
6
DASHED
0
LAYER
5
51
100
AcDbSymbolTableRecord
100
AcDbLayerTableRecord
2
0
70
0
62
7
6
CONTINUOUS
0
ENDTAB
0
TABLE
2
STYLE
5
3
100
AcDbSymbolTable
70
1
0
STYLE
5
11
100
AcDbSymbolTableRecord
100
AcDbTextStyleTableRecord
2
STANDARD
70
0
0
ENDTAB
0
TABLE
2
VIEW
5
6
100
AcDbSymbolTable
70
0
0
ENDTAB
0
TABLE
2
UCS
5
7
100
AcDbSymbolTable
70
0
0
ENDTAB
0
TABLE
2
APPID
5
9
100
AcDbSymbolTable
70
2
0
APPID
5
12
100
AcDbSymbolTableRecord
100
AcDbRegAppTableRecord
2
ACAD
70
0
0
ENDTAB
0
TABLE
2
DIMSTYLE
5
A
100
AcDbSymbolTable
70
1
0
ENDTAB
0
TABLE
2
BLOCK_RECORD
5
1
100
AcDbSymbolTable
70
1
0
BLOCK_RECORD
5
1F
100
AcDbSymbolTableRecord
100
AcDbBlockTableRecord
2
*MODEL_SPACE
0
BLOCK_RECORD
5
1B
100
AcDbSymbolTableRecord
100
AcDbBlockTableRecord
2
*PAPER_SPACE
0
ENDTAB
0
ENDSEC
0
SECTION
2
BLOCKS
0
BLOCK
5
20
100
AcDbEntity
100
AcDbBlockBegin
2
*MODEL_SPACE
0
ENDBLK
5
21
100
AcDbEntity
100
AcDbBlockEnd
0
BLOCK
5
1C
100
AcDbEntity
100
AcDbBlockBegin
2
*PAPER_SPACE
0
ENDBLK
5
1D
100
AcDbEntity
100
AcDbBlockEnd
0
ENDSEC
0
SECTION
2
ENTITIES
0
POINT
5
100
100
AcDbEntity
8
0
100
AcDbPoint
10
0
20
0
30
0
0
POINT
5
101
100
AcDbEntity
8
0
100
AcDbPoint
10
100
20
194.09162997129329
30
0
0
POINT
5
102
100
AcDbEntity
8
0
100
AcDbPoint
10
0
20
0
30
0
0
POINT
5
103
100
AcDbEntity
8
0
100
AcDbPoint
10
0
20
-299.99999999999994
30
0
0
POINT
5
104
100
AcDbEntity
8
0
100
AcDbPoint
10
0
20
-299.99999999999994
30
0
0
POINT
5
105
100
AcDbEntity
8
0
100
AcDbPoint
10
100
20
-494.09162997129329
30
0
0
POINT
5
106
100
AcDbEntity
8
0
100
AcDbPoint
10
200
20
-149.99999999999997
30
0
0
POINT
5
107
100
AcDbEntity
8
0
100
AcDbPoint
10
-179.37239926347866
20
-149.99999999999997
30
2.7755575615628914e-16
0
POINT
5
108
100
AcDbEntity
8
0
100
AcDbPoint
10
0
20
0
30
0
0
POINT
5
109
100
AcDbEntity
8
0
100
AcDbPoint
10
200
20
0
30
0
0
POINT
5
110
100
AcDbEntity
8
0
100
AcDbPoint
10
-179.37239926347866
20
-149.99999999999997
30
2.7755575615628914e-16
0
LWPOLYLINE
5
111
100
AcDbEntity
8
0
100
AcDbPolyline
90
4
70
1
43
0.0
10
44.000000685453415
20
-145.00000223517418
10
48.000000685453415
20
-145.00000223517418
10
48.000000685453415
20
-155.00000223517418
10
44.000000685453415
20
-155.00000223517418
0
LWPOLYLINE
5
112
100
AcDbEntity
8
0
100
AcDbPolyline
90
4
70
1
43
0.0
10
44.000000685453415
20
-229.99999776482582
10
44.000000685453415
20
-219.99999776482582
10
48.000000685453415
20
-219.99999776482582
10
48.000000685453415
20
-229.99999776482582
0
LWPOLYLINE
5
113
100
AcDbEntity
8
0
100
AcDbPolyline
90
4
70
1
43
0.0
10
155.99999931454659
20
-70.000002235174151
10
155.99999931454659
20
-80.000002235174151
10
151.99999931454659
20
-80.000002235174151
10
151.99999931454659
20
-70.000002235174151
0
LWPOLYLINE
5
114
100
AcDbEntity
8
0
100
AcDbPolyline
90
4
70
1
43
0.0
10
155.99999931454659
20
-145.00000223517418
10
155.99999931454659
20
-155.00000223517418
10
151.99999931454659
20
-155.00000223517418
10
151.99999931454659
20
-145.00000223517418
0
LWPOLYLINE
5
115
100
AcDbEntity
8
0
100
AcDbPolyline
90
4
70
1
43
0.0
10
164
20
-80.000002235174151
10
160
20
-80.000002235174151
10
160
20
-70.000002235174151
10
164
20
-70.000002235174151
0
LWPOLYLINE
5
116
100
AcDbEntity
8
0
100
AcDbPolyline
90
4
70
1
43
0.0
10
160
20
-229.99999776482582
10
160
20
-219.99999776482582
10
164
20
-219.99999776482582
10
164
20
-229.99999776482582
0
LWPOLYLINE
5
117
100
AcDbEntity
8
0
100
AcDbPolyline
90
4
70
1
43
0.0
10
40.000000000000007
20
-229.99999776482582
10
36.000000000000007
20
-229.99999776482582
10
36.000000000000007
20
-219.99999776482582
10
40.000000000000007
20
-219.99999776482582
0
LWPOLYLINE
5
118
100
AcDbEntity
8
0
100
AcDbPolyline
90
4
70
1
43
0.0
10
160
20
-145.00000223517418
10
164
20
-145.00000223517418
10
164
20
-155.00000223517418
10
160
20
-155.00000223517418
0
LWPOLYLINE
5
119
100
AcDbEntity
8
0
100
AcDbPolyline
90
4
70
1
43
0.0
10
40.000000000000007
20
-145.00000223517418
10
40.000000000000007
20
-155.00000223517418
10
36.000000000000007
20
-155.00000223517418
10
36.000000000000007
20
-145.00000223517418
0
LWPOLYLINE
5
120
100
AcDbEntity
8
0
100
AcDbPolyline
90
4
70
1
43
0.0
10
44.000000685453422
20
-70.000002235174151
10
48.000000685453408
20
-70.000002235174151
10
48.000000685453408
20
-80.000002235174151
10
44.000000685453422
20
-80.000002235174151
0
LWPOLYLINE
5
121
100
AcDbEntity
8
0
100
AcDbPolyline
90
4
70
1
43
0.0
10
151.99999931454659
20
-229.99999776482582
10
151.99999931454659
20
-219.99999776482582
10
155.99999931454659
20
-219.99999776482582
10
155.99999931454659
20
-229.99999776482582
0
LWPOLYLINE
5
122
100
AcDbEntity
8
0
100
AcDbPolyline
90
4
70
1
43
0.0
10
20.000000298023224
20
-79.999996721744509
10
10.000000298023224
20
-79.999996721744509
10
10.000000298023224
20
-75.999996721744509
10
20.000000298023224
20
-75.999996721744509
0
LWPOLYLINE
5
123
100
AcDbEntity
8
0
100
AcDbPolyline
90
4
70
1
43
0.0
10
20.000000298023224
20
-84.000004529953031
10
20.000000298023224
20
-88.000004529953031
10
10.000000298023224
20
-88.000004529953031
10
10.000000298023224
20
-84.000004529953031
0
LWPOLYLINE
5
124
100
AcDbEntity
8
0
100
AcDbPolyline
90
4
70
1
43
0.0
10
179.99999970197678
20
-211.99999547004694
10
189.99999970197678
20
-211.99999547004694
10
189.99999970197678
20
-215.99999547004694
10
179.99999970197678
20
-215.99999547004694
0
LWPOLYLINE
5
125
100
AcDbEntity
8
0
100
AcDbPolyline
90
4
70
1
43
0.0
10
20.000000298023224
20
-215.99999547004694
10
10.000000298023224
20
-215.99999547004694
10
10.000000298023224
20
-211.99999547004694
10
20.000000298023224
20
-211.99999547004694
0
LWPOLYLINE
5
126
100
AcDbEntity
8
0
100
AcDbPolyline
90
4
70
1
43
0.0
10
179.99999970197678
20
-79.999996721744509
10
179.99999970197678
20
-75.999996721744509
10
189.99999970197678
20
-75.999996721744509
10
189.99999970197678
20
-79.999996721744509
0
LWPOLYLINE
5
127
100
AcDbEntity
8
0
100
AcDbPolyline
90
4
70
1
43
0.0
10
36.000000000000014
20
-80.000002235174151
10
36.000000000000014
20
-70.000002235174151
10
40
20
-70.000002235174151
10
40
20
-80.000002235174151
0
LWPOLYLINE
5
128
100
AcDbEntity
8
0
100
AcDbPolyline
90
4
70
1
43
0.0
10
189.99999970197678
20
-84.000004529953031
10
189.99999970197678
20
-88.000004529953031
10
179.99999970197678
20
-88.000004529953031
10
179.99999970197678
20
-84.000004529953031
0
LWPOLYLINE
5
129
100
AcDbEntity
8
0
100
AcDbPolyline
90
4
70
1
43
0.0
10
20.000000298023224
20
-224.00000327825546
10
10.000000298023224
20
-224.00000327825546
10
10.000000298023224
20
-220.00000327825546
10
20.000000298023224
20
-220.00000327825546
0
LWPOLYLINE
5
130
100
AcDbEntity
8
0
100
AcDbPolyline
90
4
70
1
43
0.0
10
189.99999970197678
20
-224.00000327825546
10
179.99999970197678
20
-224.00000327825546
10
179.99999970197678
20
-220.00000327825546
10
189.99999970197678
20
-220.00000327825546
0
LWPOLYLINE
5
131
100
AcDbEntity
8
0
100
AcDbPolyline
90
4
70
1
43
0.0
10
0
20
0
10
0
20
-299.99999999999994
10
200
20
-299.99999999999994
10
200
20
0
0
LINE
5
132
100
AcDbEntity
8
0
100
AcDbLine
10
-3.9999999999999858
20
46.250000000000007
30
0
11
-3.9999999999999858
21
56.250000000000007
31
0
0
LWPOLYLINE
5
133
100
AcDbEntity
8
0
100
AcDbPolyline
90
4
70
1
43
0.0
10
43.999999999999986
20
47.5
10
43.999999999999986
20
37.5
10
47.999999999999972
20
37.5
10
47.999999999999972
20
47.5
0
LINE
5
134
100
AcDbEntity
8
0
100
AcDbLine
10
0
20
140
30
0
11
-3.9999999999999858
21
140
31
0
0
LINE
5
135
100
AcDbEntity
8
0
100
AcDbLine
10
-3.9999999999999858
20
112.5
30
0
11
0
21
112.5
31
0
0
LINE
5
136
100
AcDbEntity
8
0
100
AcDbLine
10
200
20
93.75
30
0
11
200
21
102.5
31
0
0
LINE
5
137
100
AcDbEntity
8
0
100
AcDbLine
10
0
20
8.75
30
0
11
-3.9999999999999858
21
8.75
31
0
0
LINE
5
138
100
AcDbEntity
8
0
100
AcDbLine
10
200
20
112.5
30
0
11
200
21
121.25
31
0
0
LINE
5
139
100
AcDbEntity
8
1
100
AcDbLine
10
100
20
0
30
0
11
100
21
194.09162997129329
31
0
0
LINE
5
140
100
AcDbEntity
8
0
100
AcDbLine
10
204
20
27.5
30
0
11
204
21
37.5
31
0
0
LINE
5
141
100
AcDbEntity
8
0
100
AcDbLine
10
0
20
56.250000000000007
30
0
11
0
21
65.000000000000014
31
0
0
LINE
5
142
100
AcDbEntity
8
0
100
AcDbLine
10
-3.9999999999999858
20
18.75
30
0
11
0
21
18.75
31
0
0
LINE
5
143
100
AcDbEntity
8
0
100
AcDbLine
10
-3.9999999999999858
20
131.25
30
0
11
0
21
131.25
31
0
0
LINE
5
144
100
AcDbEntity
8
0
100
AcDbLine
10
0
20
18.75
30
0
11
0
21
27.5
31
0
0
LINE
5
145
100
AcDbEntity
8
0
100
AcDbLine
10
100
20
150
30
0
11
204
21
150
31
0
0
LINE
5
146
100
AcDbEntity
8
0
100
AcDbLine
10
-3.9999999999999858
20
65.000000000000014
30
0
11
-3.9999999999999858
21
75.000000000000014
31
0
0
LINE
5
147
100
AcDbEntity
8
0
100
AcDbLine
10
-3.9999999999999858
20
65.000000000000014
30
0
11
-3.9999999999999858
21
75.000000000000014
31
0
0
LINE
5
148
100
AcDbEntity
8
0
100
AcDbLine
10
100
20
0
30
0
11
200
21
0
31
0
0
LINE
5
149
100
AcDbEntity
8
0
100
AcDbLine
10
100
20
150
30
0
11
-3.9999999999999858
21
150
31
0
0
LWPOLYLINE
5
150
100
AcDbEntity
8
0
100
AcDbPolyline
90
4
70
1
43
0.0
10
60.000000000000036
20
134.2086757547799
10
140.00000000000006
20
134.2086757547799
10
140.00000000000003
20
114.20867575477992
10
60.000000000000036
20
114.20867575477992
0
LINE
5
151
100
AcDbEntity
8
0
100
AcDbLine
10
100
20
0
30
0
11
0
21
0
31
0
0
LWPOLYLINE
5
152
100
AcDbEntity
8
0
100
AcDbPolyline
90
64
70
1
43
0.0
10
0
20
0
10
200
20
0
10
200
20
8.75
10
204
20
8.75
10
204
20
18.75
10
200
20
18.75
10
200
20
27.5
10
204
20
27.5
10
204
20
37.5
10
200
20
37.5
10
200
20
46.250000000000007
10
204
20
46.250000000000007
10
204
20
56.250000000000007
10
200
20
56.250000000000007
10
200
20
65.000000000000014
10
204
20
65.000000000000014
10
204
20
75.000000000000014
10
200
20
75.000000000000014
10
200
20
83.75
10
204
20
83.75
10
204
20
93.75
10
200
20
93.75
10
200
20
102.5
10
204
20
102.5
10
204
20
112.5
10
200
20
112.5
10
200
20
121.25
10
204
20
121.25
10
204
20
131.25
10
200
20
131.25
10
200
20
140
10
204
20
140
10
204
20
150
10
-3.9999999999999858
20
150
10
-4
20
140
10
0
20
140
10
0
20
131.25
10
-4
20
131.25
10
-4
20
121.25
10
0
20
121.25
10
0
20
112.5
10
-4
20
112.5
10
-4
20
102.5
10
0
20
102.5
10
0
20
93.75
10
-4
20
93.75
10
-4
20
83.75
10
0
20
83.75
10
0
20
75
10
-4
20
75
10
-4
20
65
10
0
20
65
10
0
20
56.25
10
-4
20
56.25
10
-4
20
46.25
10
0
20
46.25
10
0
20
37.5
10
-4
20
37.5
10
-4
20
27.5
10
0
20
27.5
10
0
20
18.75
10
-4
20
18.75
10
-4
20
8.75
10
0
20
8.75
0
LWPOLYLINE
5
153
100
AcDbEntity
8
0
100
AcDbPolyline
90
4
70
1
43
0.0
10
47.999999999999972
20
37.5
10
43.999999999999986
20
37.5
10
43.999999999999986
20
47.5
10
47.999999999999972
20
47.5
0
LWPOLYLINE
5
154
100
AcDbEntity
8
0
100
AcDbPolyline
90
4
70
1
43
0.0
10
40
20
47.5
10
40
20
37.5
10
36.000000000000014
20
37.5
10
36.000000000000014
20
47.5
0
LWPOLYLINE
5
155
100
AcDbEntity
8
0
100
AcDbPolyline
90
4
70
1
43
0.0
10
152.00000000000003
20
47.5
10
152.00000000000003
20
37.5
10
156
20
37.5
10
156
20
47.5
0
LWPOLYLINE
5
156
100
AcDbEntity
8
0
100
AcDbPolyline
90
4
70
1
43
0.0
10
40
20
102.5
10
36.000000000000014
20
102.5
10
36.000000000000014
20
112.5
10
40
20
112.5
0
LWPOLYLINE
5
157
100
AcDbEntity
8
0
100
AcDbPolyline
90
4
70
1
43
0.0
10
160
20
37.5
10
164
20
37.5
10
164
20
47.5
10
160
20
47.5
0
LINE
5
158
100
AcDbEntity
8
0
100
AcDbLine
10
-3.9999999999999858
20
121.25
30
0
11
0
21
121.25
31
0
0
LINE
5
159
100
AcDbEntity
8
0
100
AcDbLine
10
-3.9999999999999858
20
27.5
30
0
11
-3.9999999999999858
21
37.5
31
0
0
LWPOLYLINE
5
160
100
AcDbEntity
8
0
100
AcDbPolyline
90
4
70
1
43
0.0
10
164
20
102.5
10
164
20
112.5
10
160
20
112.5
10
160
20
102.5
0
LINE
5
161
100
AcDbEntity
8
0
100
AcDbLine
10
200
20
112.5
30
0
11
204
21
112.5
31
0
0
LINE
5
162
100
AcDbEntity
8
0
100
AcDbLine
10
0
20
8.75
30
0
11
-3.9999999999999858
21
8.75
31
0
0
LINE
5
163
100
AcDbEntity
8
0
100
AcDbLine
10
-3.9999999999999858
20
46.250000000000007
30
0
11
-3.9999999999999858
21
56.250000000000007
31
0
0
LINE
5
164
100
AcDbEntity
8
0
100
AcDbLine
10
200
20
75.000000000000014
30
0
11
204
21
75.000000000000014
31
0
0
LINE
5
165
100
AcDbEntity
8
0
100
AcDbLine
10
-3.9999999999999858
20
8.75
30
0
11
-3.9999999999999858
21
18.75
31
0
0
LINE
5
166
100
AcDbEntity
8
0
100
AcDbLine
10
204
20
102.5
30
0
11
200
21
102.5
31
0
0
LINE
5
167
100
AcDbEntity
8
0
100
AcDbLine
10
204
20
140
30
0
11
204
21
150
31
0
0
LWPOLYLINE
5
168
100
AcDbEntity
8
0
100
AcDbPolyline
90
4
70
1
43
0.0
10
36.000000000000014
20
47.5
10
36.000000000000014
20
37.5
10
40
20
37.5
10
40
20
47.5
0
LINE
5
169
100
AcDbEntity
8
0
100
AcDbLine
10
0
20
0
30
0
11
0
21
8.75
31
0
0
LINE
5
170
100
AcDbEntity
8
0
100
AcDbLine
10
0
20
83.75
30
0
11
-3.9999999999999858
21
83.75
31
0
0
LWPOLYLINE
5
171
100
AcDbEntity
8
0
100
AcDbPolyline
90
4
70
1
43
0.0
10
36.000000000000014
20
112.5
10
36.000000000000014
20
102.5
10
40
20
102.5
10
40
20
112.5
0
LINE
5
172
100
AcDbEntity
8
0
100
AcDbLine
10
204
20
65.000000000000014
30
0
11
204
21
75.000000000000014
31
0
0
LINE
5
173
100
AcDbEntity
8
0
100
AcDbLine
10
0
20
75.000000000000014
30
0
11
0
21
83.75
31
0
0
LINE
5
174
100
AcDbEntity
8
0
100
AcDbLine
10
0
20
0
30
0
11
0
21
8.75
31
0
0
LINE
5
175
100
AcDbEntity
8
0
100
AcDbLine
10
200
20
46.250000000000007
30
0
11
204
21
46.250000000000007
31
0
0
LINE
5
176
100
AcDbEntity
8
0
100
AcDbLine
10
0
20
93.75
30
0
11
-3.9999999999999858
21
93.75
31
0
0
LINE
5
177
100
AcDbEntity
8
0
100
AcDbLine
10
0
20
18.75
30
0
11
0
21
27.5
31
0
0
LINE
5
178
100
AcDbEntity
8
0
100
AcDbLine
10
204
20
8.75
30
0
11
204
21
18.75
31
0
0
LWPOLYLINE
5
179
100
AcDbEntity
8
0
100
AcDbPolyline
90
4
70
1
43
0.0
10
152.00000000000003
20
37.5
10
152.00000000000003
20
47.5
10
156
20
47.5
10
156
20
37.5
0
LWPOLYLINE
5
180
100
AcDbEntity
8
0
100
AcDbPolyline
90
4
70
1
43
0.0
10
40
20
102.5
10
36.000000000000014
20
102.5
10
36.000000000000014
20
112.5
10
40
20
112.5
0
LINE
5
181
100
AcDbEntity
8
0
100
AcDbLine
10
0
20
56.250000000000007
30
0
11
0
21
65.000000000000014
31
0
0
LWPOLYLINE
5
182
100
AcDbEntity
8
0
100
AcDbPolyline
90
4
70
1
43
0.0
10
47.999999999999972
20
102.5
10
43.999999999999986
20
102.5
10
43.999999999999986
20
112.5
10
47.999999999999972
20
112.5
0
LINE
5
183
100
AcDbEntity
8
0
100
AcDbLine
10
0
20
112.5
30
0
11
-3.9999999999999858
21
112.5
31
0
0
LINE
5
184
100
AcDbEntity
8
0
100
AcDbLine
10
-3.9999999999999858
20
121.25
30
0
11
-3.9999999999999858
21
131.25
31
0
0
LWPOLYLINE
5
185
100
AcDbEntity
8
0
100
AcDbPolyline
90
4
70
1
43
0.0
10
40
20
37.5
10
36.000000000000014
20
37.5
10
36.000000000000014
20
47.500000000000007
10
40
20
47.500000000000007
0
LINE
5
186
100
AcDbEntity
8
0
100
AcDbLine
10
0
20
65.000000000000014
30
0
11
-3.9999999999999858
21
65.000000000000014
31
0
0
LINE
5
187
100
AcDbEntity
8
0
100
AcDbLine
10
-3.9999999999999858
20
121.25
30
0
11
-3.9999999999999858
21
131.25
31
0
0
LINE
5
188
100
AcDbEntity
8
0
100
AcDbLine
10
-3.9999999999999858
20
93.75
30
0
11
0
21
93.75
31
0
0
LINE
5
189
100
AcDbEntity
8
0
100
AcDbLine
10
200
20
37.5
30
0
11
200
21
46.250000000000007
31
0
0
LINE
5
190
100
AcDbEntity
8
0
100
AcDbLine
10
-3.9999999999999858
20
37.5
30
0
11
0
21
37.5
31
0
0
LINE
5
191
100
AcDbEntity
8
0
100
AcDbLine
10
-3.9999999999999858
20
8.75
30
0
11
-3.9999999999999858
21
18.75
31
0
0
LINE
5
192
100
AcDbEntity
8
0
100
AcDbLine
10
0
20
102.5
30
0
11
-3.9999999999999858
21
102.5
31
0
0
LWPOLYLINE
5
193
100
AcDbEntity
8
0
100
AcDbPolyline
90
4
70
1
43
0.0
10
140.00000000000006
20
134.2086757547799
10
60.000000000000036
20
134.2086757547799
10
60.000000000000036
20
114.20867575477992
10
140.00000000000006
20
114.20867575477992
0
LINE
5
194
100
AcDbEntity
8
0
100
AcDbLine
10
200
20
131.25
30
0
11
204
21
131.25
31
0
0
LINE
5
195
100
AcDbEntity
8
0
100
AcDbLine
10
204
20
102.5
30
0
11
204
21
112.5
31
0
0
LWPOLYLINE
5
196
100
AcDbEntity
8
0
100
AcDbPolyline
90
4
70
1
43
0.0
10
47.999999999999972
20
112.5
10
43.999999999999986
20
112.5
10
43.999999999999986
20
102.5
10
47.999999999999972
20
102.5
0
LINE
5
197
100
AcDbEntity
8
0
100
AcDbLine
10
200
20
83.75
30
0
11
204
21
83.75
31
0
0
LINE
5
198
100
AcDbEntity
8
0
100
AcDbLine
10
0
20
121.25
30
0
11
-3.9999999999999858
21
121.25
31
0
0
LWPOLYLINE
5
199
100
AcDbEntity
8
0
100
AcDbPolyline
90
4
70
1
43
0.0
10
164
20
112.5
10
164
20
102.5
10
160
20
102.5
10
160
20
112.5
0
LINE
5
200
100
AcDbEntity
8
0
100
AcDbLine
10
0
20
131.25
30
0
11
0
21
140
31
0
0
LINE
5
201
100
AcDbEntity
8
0
100
AcDbLine
10
0
20
93.75
30
0
11
0
21
102.5
31
0
0
LINE
5
202
100
AcDbEntity
8
0
100
AcDbLine
10
204
20
18.75
30
0
11
200
21
18.75
31
0
0
LWPOLYLINE
5
203
100
AcDbEntity
8
0
100
AcDbPolyline
90
4
70
1
43
0.0
10
152.00000000000003
20
102.5
10
156
20
102.5
10
156
20
112.5
10
152.00000000000003
20
112.5
0
LWPOLYLINE
5
204
100
AcDbEntity
8
0
100
AcDbPolyline
90
4
70
1
43
0.0
10
47.999999999999972
20
102.5
10
43.999999999999986
20
102.5
10
43.999999999999986
20
112.5
10
47.999999999999972
20
112.5
0
LINE
5
205
100
AcDbEntity
8
0
100
AcDbLine
10
-3.9999999999999858
20
140
30
0
11
-3.9999999999999858
21
150
31
0
0
LINE
5
206
100
AcDbEntity
8
0
100
AcDbLine
10
204
20
56.250000000000007
30
0
11
200
21
56.250000000000007
31
0
0
LWPOLYLINE
5
207
100
AcDbEntity
8
0
100
AcDbPolyline
90
4
70
1
43
0.0
10
152.00000000000003
20
112.5
10
156
20
112.5
10
156
20
102.5
10
152.00000000000003
20
102.5
0
LINE
5
208
100
AcDbEntity
8
0
100
AcDbLine
10
0
20
93.75
30
0
11
0
21
102.5
31
0
0
LINE
5
209
100
AcDbEntity
8
0
100
AcDbLine
10
200
20
65.000000000000014
30
0
11
204
21
65.000000000000014
31
0
0
LINE
5
210
100
AcDbEntity
8
0
100
AcDbLine
10
-3.9999999999999858
20
102.5
30
0
11
-3.9999999999999858
21
112.5
31
0
0
LINE
5
211
100
AcDbEntity
8
0
100
AcDbLine
10
-3.9999999999999858
20
37.5
30
0
11
0
21
37.5
31
0
0
LINE
5
212
100
AcDbEntity
8
0
100
AcDbLine
10
-3.9999999999999858
20
140
30
0
11
0
21
140
31
0
0
LINE
5
213
100
AcDbEntity
8
0
100
AcDbLine
10
204
20
140
30
0
11
200
21
140
31
0
0
LINE
5
214
100
AcDbEntity
8
0
100
AcDbLine
10
200
20
131.25
30
0
11
200
21
140
31
0
0
LINE
5
215
100
AcDbEntity
8
0
100
AcDbLine
10
0
20
83.75
30
0
11
-3.9999999999999858
21
83.75
31
0
0
LINE
5
216
100
AcDbEntity
8
0
100
AcDbLine
10
200
20
93.75
30
0
11
204
21
93.75
31
0
0
LINE
5
217
100
AcDbEntity
8
0
100
AcDbLine
10
204
20
83.75
30
0
11
204
21
93.75
31
0
0
LINE
5
218
100
AcDbEntity
8
0
100
AcDbLine
10
-3.9999999999999858
20
140
30
0
11
-3.9999999999999858
21
150
31
0
0
LINE
5
219
100
AcDbEntity
8
0
100
AcDbLine
10
59.999999999999943
20
134.2086757547799
30
0
11
59.999999999999964
21
114.20867575477992
31
0
0
LINE
5
220
100
AcDbEntity
8
0
100
AcDbLine
10
204
20
121.25
30
0
11
200
21
121.25
31
0
0
LINE
5
221
100
AcDbEntity
8
0
100
AcDbLine
10
0
20
65.000000000000014
30
0
11
-3.9999999999999858
21
65.000000000000014
31
0
0
LINE
5
222
100
AcDbEntity
8
0
100
AcDbLine
10
-3.9999999999999858
20
83.75
30
0
11
-3.9999999999999858
21
93.75
31
0
0
LINE
5
223
100
AcDbEntity
8
0
100
AcDbLine
10
0
20
27.5
30
0
11
-3.9999999999999858
21
27.5
31
0
0
LINE
5
224
100
AcDbEntity
8
0
100
AcDbLine
10
0
20
75.000000000000014
30
0
11
0
21
83.75
31
0
0
LINE
5
225
100
AcDbEntity
8
0
100
AcDbLine
10
200
20
27.5
30
0
11
204
21
27.5
31
0
0
LWPOLYLINE
5
226
100
AcDbEntity
8
0
100
AcDbPolyline
90
4
70
1
43
0.0
10
164
20
37.5
10
160
20
37.5
10
160
20
47.5
10
164
20
47.5
0
LWPOLYLINE
5
227
100
AcDbEntity
8
0
100
AcDbPolyline
90
4
70
1
43
0.0
10
47.999999999999972
20
37.5
10
43.999999999999986
20
37.5
10
43.999999999999986
20
47.500000000000007
10
47.999999999999972
20
47.500000000000007
0
LINE
5
228
100
AcDbEntity
8
0
100
AcDbLine
10
0
20
46.250000000000007
30
0
11
-3.9999999999999858
21
46.250000000000007
31
0
0
LINE
5
229
100
AcDbEntity
8
0
100
AcDbLine
10
-3.9999999999999858
20
56.250000000000007
30
0
11
0
21
56.250000000000007
31
0
0
LINE
5
230
100
AcDbEntity
8
0
100
AcDbLine
10
200
20
0
30
0
11
200
21
8.75
31
0
0
LINE
5
231
100
AcDbEntity
8
0
100
AcDbLine
10
59.999999999999943
20
114.20867575477992
30
0
11
59.999999999999943
21
134.2086757547799
31
0
0
LINE
5
232
100
AcDbEntity
8
0
100
AcDbLine
10
0
20
37.5
30
0
11
0
21
46.250000000000007
31
0
0
LINE
5
233
100
AcDbEntity
8
0
100
AcDbLine
10
0
20
131.25
30
0
11
0
21
140
31
0
0
LINE
5
234
100
AcDbEntity
8
0
100
AcDbLine
10
0
20
112.5
30
0
11
0
21
121.25
31
0
0
LINE
5
235
100
AcDbEntity
8
0
100
AcDbLine
10
-3.9999999999999858
20
75.000000000000014
30
0
11
0
21
75.000000000000014
31
0
0
LINE
5
236
100
AcDbEntity
8
0
100
AcDbLine
10
200
20
75.000000000000014
30
0
11
200
21
83.75
31
0
0
LINE
5
237
100
AcDbEntity
8
0
100
AcDbLine
10
204
20
121.25
30
0
11
204
21
131.25
31
0
0
LINE
5
238
100
AcDbEntity
8
0
100
AcDbLine
10
0
20
75.000000000000014
30
0
11
-3.9999999999999858
21
75.000000000000014
31
0
0
LINE
5
239
100
AcDbEntity
8
0
100
AcDbLine
10
-3.9999999999999858
20
102.5
30
0
11
0
21
102.5
31
0
0
LINE
5
240
100
AcDbEntity
8
0
100
AcDbLine
10
-3.9999999999999858
20
102.5
30
0
11
-3.9999999999999858
21
112.5
31
0
0
LINE
5
241
100
AcDbEntity
8
0
100
AcDbLine
10
204
20
37.5
30
0
11
200
21
37.5
31
0
0
LINE
5
242
100
AcDbEntity
8
0
100
AcDbLine
10
200
20
8.75
30
0
11
204
21
8.75
31
0
0
LINE
5
243
100
AcDbEntity
8
0
100
AcDbLine
10
0
20
46.250000000000007
30
0
11
-3.9999999999999858
21
46.250000000000007
31
0
0
LINE
5
244
100
AcDbEntity
8
0
100
AcDbLine
10
-3.9999999999999858
20
18.75
30
0
11
0
21
18.75
31
0
0
LINE
5
245
100
AcDbEntity
8
0
100
AcDbLine
10
0
20
131.25
30
0
11
-3.9999999999999858
21
131.25
31
0
0
LINE
5
246
100
AcDbEntity
8
0
100
AcDbLine
10
-3.9999999999999858
20
56.250000000000007
30
0
11
0
21
56.250000000000007
31
0
0
LINE
5
247
100
AcDbEntity
8
0
100
AcDbLine
10
0
20
37.5
30
0
11
0
21
46.250000000000007
31
0
0
LINE
5
248
100
AcDbEntity
8
0
100
AcDbLine
10
-3.9999999999999858
20
27.5
30
0
11
-3.9999999999999858
21
37.5
31
0
0
LINE
5
249
100
AcDbEntity
8
0
100
AcDbLine
10
0
20
112.5
30
0
11
0
21
121.25
31
0
0
LINE
5
250
100
AcDbEntity
8
0
100
AcDbLine
10
200
20
56.250000000000007
30
0
11
200
21
65.000000000000014
31
0
0
LINE
5
251
100
AcDbEntity
8
0
100
AcDbLine
10
200
20
18.75
30
0
11
200
21
27.5
31
0
0
LINE
5
252
100
AcDbEntity
8
0
100
AcDbLine
10
-3.9999999999999858
20
83.75
30
0
11
-3.9999999999999858
21
93.75
31
0
0
LINE
5
253
100
AcDbEntity
8
0
100
AcDbLine
10
0
20
27.5
30
0
11
-3.9999999999999858
21
27.5
31
0
0
LINE
5
254
100
AcDbEntity
8
0
100
AcDbLine
10
204
20
46.250000000000007
30
0
11
204
21
56.250000000000007
31
0
0
LINE
5
255
100
AcDbEntity
8
1
100
AcDbLine
10
0
20
-149.99999999999997
30
0
11
220
21
-149.99999999999997
31
0
0
LINE
5
256
100
AcDbEntity
8
0
100
AcDbLine
10
100
20
-299.99999999999994
30
0
11
200
21
-299.99999999999994
31
0
0
LWPOLYLINE
5
257
100
AcDbEntity
8
0
100
AcDbPolyline
90
64
70
1
43
0.0
10
0
20
-299.99999999999994
10
200
20
-299.99999999999994
10
200
20
-308.74999999999994
10
204
20
-308.74999999999994
10
204
20
-318.75
10
200
20
-318.75
10
200
20
-327.5
10
204
20
-327.5
10
204
20
-337.5
10
200
20
-337.5
10
200
20
-346.25
10
204
20
-346.25
10
204
20
-356.25
10
200
20
-356.25
10
200
20
-365
10
204
20
-365
10
204
20
-375
10
200
20
-375
10
200
20
-383.75
10
204
20
-383.75
10
204
20
-393.75
10
200
20
-393.75
10
200
20
-402.5
10
204
20
-402.5
10
204
20
-412.5
10
200
20
-412.5
10
200
20
-421.25
10
204
20
-421.25
10
204
20
-431.25
10
200
20
-431.25
10
200
20
-440
10
204
20
-440
10
204
20
-450
10
-3.9999999999999858
20
-450
10
-4
20
-440
10
0
20
-440
10
0
20
-431.25
10
-4
20
-431.25
10
-4
20
-421.25
10
0
20
-421.25
10
0
20
-412.5
10
-4
20
-412.5
10
-4
20
-402.5
10
0
20
-402.5
10
0
20
-393.75
10
-4
20
-393.75
10
-4
20
-383.75
10
0
20
-383.75
10
0
20
-375
10
-4
20
-375
10
-4
20
-365
10
0
20
-365
10
0
20
-356.25
10
-4
20
-356.25
10
-4
20
-346.25
10
0
20
-346.25
10
0
20
-337.5
10
-4
20
-337.5
10
-4
20
-327.5
10
0
20
-327.5
10
0
20
-318.75
10
-4
20
-318.75
10
-4
20
-308.74999999999994
10
0
20
-308.74999999999994
0
LINE
5
258
100
AcDbEntity
8
0
100
AcDbLine
10
100
20
-299.99999999999994
30
0
11
0
21
-299.99999999999994
31
0
0
LINE
5
259
100
AcDbEntity
8
0
100
AcDbLine
10
200
20
-299.99999999999994
30
0
11
0
21
-299.99999999999994
31
0
0
LINE
5
260
100
AcDbEntity
8
0
100
AcDbLine
10
100
20
-450
30
0
11
-3.9999999999999858
21
-450
31
0
0
LINE
5
261
100
AcDbEntity
8
0
100
AcDbLine
10
204
20
-365
30
0
11
204
21
-375
31
0
0
LINE
5
262
100
AcDbEntity
8
0
100
AcDbLine
10
204
20
-318.75
30
0
11
200
21
-318.75
31
0
0
LINE
5
263
100
AcDbEntity
8
0
100
AcDbLine
10
200
20
-393.75
30
0
11
204
21
-393.75
31
0
0
LWPOLYLINE
5
264
100
AcDbEntity
8
0
100
AcDbPolyline
90
4
70
1
43
0.0
10
47.999999999999972
20
-347.5
10
47.999999999999972
20
-337.5
10
43.999999999999986
20
-337.5
10
43.999999999999986
20
-347.5
0
LWPOLYLINE
5
265
100
AcDbEntity
8
0
100
AcDbPolyline
90
4
70
1
43
0.0
10
152.00000000000003
20
-402.5
10
152.00000000000003
20
-412.5
10
156
20
-412.5
10
156
20
-402.5
0
LWPOLYLINE
5
266
100
AcDbEntity
8
0
100
AcDbPolyline
90
4
70
1
43
0.0
10
160
20
-337.5
10
160
20
-347.5
10
164
20
-347.5
10
164
20
-337.5
0
LWPOLYLINE
5
267
100
AcDbEntity
8
0
100
AcDbPolyline
90
4
70
1
43
0.0
10
160
20
-402.5
10
160
20
-412.5
10
164
20
-412.5
10
164
20
-402.5
0
LWPOLYLINE
5
268
100
AcDbEntity
8
0
100
AcDbPolyline
90
4
70
1
43
0.0
10
47.999999999999972
20
-347.5
10
43.999999999999986
20
-347.5
10
43.999999999999986
20
-337.5
10
47.999999999999972
20
-337.5
0
LINE
5
269
100
AcDbEntity
8
0
100
AcDbLine
10
200
20
-356.25
30
0
11
200
21
-365
31
0
0
LWPOLYLINE
5
270
100
AcDbEntity
8
0
100
AcDbPolyline
90
4
70
1
43
0.0
10
60.000000000000036
20
-414.2086757547799
10
140.00000000000006
20
-414.2086757547799
10
140.00000000000006
20
-434.2086757547799
10
60.000000000000036
20
-434.2086757547799
0
LINE
5
271
100
AcDbEntity
8
0
100
AcDbLine
10
204
20
-346.25
30
0
11
204
21
-356.25
31
0
0
LWPOLYLINE
5
272
100
AcDbEntity
8
0
100
AcDbPolyline
90
4
70
1
43
0.0
10
156
20
-412.5
10
152.00000000000003
20
-412.5
10
152.00000000000003
20
-402.5
10
156
20
-402.5
0
LINE
5
273
100
AcDbEntity
8
0
100
AcDbLine
10
-3.9999999999999858
20
-365
30
0
11
-3.9999999999999858
21
-375
31
0
0
LINE
5
274
100
AcDbEntity
8
0
100
AcDbLine
10
100
20
-450
30
0
11
204
21
-450
31
0
0
LWPOLYLINE
5
275
100
AcDbEntity
8
0
100
AcDbPolyline
90
4
70
1
43
0.0
10
156
20
-347.5
10
156
20
-337.5
10
152.00000000000003
20
-337.5
10
152.00000000000003
20
-347.5
0
LWPOLYLINE
5
276
100
AcDbEntity
8
0
100
AcDbPolyline
90
4
70
1
43
0.0
10
164
20
-337.5
10
164
20
-347.5
10
160
20
-347.5
10
160
20
-337.5
0
LWPOLYLINE
5
277
100
AcDbEntity
8
0
100
AcDbPolyline
90
4
70
1
43
0.0
10
36.000000000000014
20
-337.5
10
36.000000000000014
20
-347.5
10
40
20
-347.5
10
40
20
-337.5
0
LINE
5
278
100
AcDbEntity
8
0
100
AcDbLine
10
200
20
-337.5
30
0
11
200
21
-346.25
31
0
0
LINE
5
279
100
AcDbEntity
8
0
100
AcDbLine
10
204
20
-421.25
30
0
11
204
21
-431.25
31
0
0
LINE
5
280
100
AcDbEntity
8
0
100
AcDbLine
10
0
20
-299.99999999999994
30
0
11
0
21
-308.74999999999994
31
0
0
LWPOLYLINE
5
281
100
AcDbEntity
8
0
100
AcDbPolyline
90
4
70
1
43
0.0
10
156
20
-337.5
10
156
20
-347.5
10
152.00000000000003
20
-347.5
10
152.00000000000003
20
-337.5
0
LINE
5
282
100
AcDbEntity
8
0
100
AcDbLine
10
0
20
-318.75
30
0
11
0
21
-327.5
31
0
0
LWPOLYLINE
5
283
100
AcDbEntity
8
0
100
AcDbPolyline
90
4
70
1
43
0.0
10
36.000000000000014
20
-337.5
10
36.000000000000014
20
-347.5
10
40
20
-347.5
10
40
20
-337.5
0
LWPOLYLINE
5
284
100
AcDbEntity
8
0
100
AcDbPolyline
90
4
70
1
43
0.0
10
43.999999999999986
20
-347.5
10
47.999999999999972
20
-347.5
10
47.999999999999972
20
-337.5
10
43.999999999999986
20
-337.5
0
LINE
5
285
100
AcDbEntity
8
0
100
AcDbLine
10
0
20
-308.74999999999994
30
0
11
-3.9999999999999858
21
-308.74999999999994
31
0
0
LINE
5
286
100
AcDbEntity
8
0
100
AcDbLine
10
-3.9999999999999858
20
-327.5
30
0
11
-3.9999999999999858
21
-337.5
31
0
0
LINE
5
287
100
AcDbEntity
8
0
100
AcDbLine
10
-3.9999999999999858
20
-327.5
30
0
11
-3.9999999999999858
21
-337.5
31
0
0
LWPOLYLINE
5
288
100
AcDbEntity
8
0
100
AcDbPolyline
90
4
70
1
43
0.0
10
164
20
-412.5
10
160
20
-412.5
10
160
20
-402.5
10
164
20
-402.5
0
LINE
5
289
100
AcDbEntity
8
0
100
AcDbLine
10
0
20
-299.99999999999994
30
0
11
0
21
-308.74999999999994
31
0
0
LWPOLYLINE
5
290
100
AcDbEntity
8
0
100
AcDbPolyline
90
4
70
1
43
0.0
10
40
20
-347.5
10
36.000000000000014
20
-347.5
10
36.000000000000014
20
-337.5
10
40
20
-337.5
0
LINE
5
291
100
AcDbEntity
8
0
100
AcDbLine
10
0
20
-318.75
30
0
11
0
21
-327.5
31
0
0
LINE
5
292
100
AcDbEntity
8
0
100
AcDbLine
10
204
20
-337.5
30
0
11
200
21
-337.5
31
0
0
LINE
5
293
100
AcDbEntity
8
0
100
AcDbLine
10
200
20
-365
30
0
11
204
21
-365
31
0
0
LWPOLYLINE
5
294
100
AcDbEntity
8
0
100
AcDbPolyline
90
4
70
1
43
0.0
10
140.00000000000003
20
-414.2086757547799
10
60.000000000000036
20
-414.2086757547799
10
60.000000000000036
20
-434.2086757547799
10
140.00000000000006
20
-434.2086757547799
0
LINE
5
295
100
AcDbEntity
8
0
100
AcDbLine
10
200
20
-299.99999999999994
30
0
11
200
21
-308.74999999999994
31
0
0
LINE
5
296
100
AcDbEntity
8
0
100
AcDbLine
10
0
20
-327.5
30
0
11
-3.9999999999999858
21
-327.5
31
0
0
LINE
5
297
100
AcDbEntity
8
0
100
AcDbLine
10
-3.9999999999999858
20
-308.74999999999994
30
0
11
-3.9999999999999858
21
-318.75
31
0
0
LINE
5
298
100
AcDbEntity
8
0
100
AcDbLine
10
0
20
-308.74999999999994
30
0
11
-3.9999999999999858
21
-308.74999999999994
31
0
0
LINE
5
299
100
AcDbEntity
8
1
100
AcDbLine
10
100
20
-299.99999999999994
30
0
11
100
21
-494.09162997129329
31
0
0
LINE
5
300
100
AcDbEntity
8
0
100
AcDbLine
10
-3.9999999999999858
20
-365
30
0
11
-3.9999999999999858
21
-375
31
0
0
LINE
5
301
100
AcDbEntity
8
0
100
AcDbLine
10
0
20
-375
30
0
11
0
21
-383.75
31
0
0
LINE
5
302
100
AcDbEntity
8
0
100
AcDbLine
10
-3.9999999999999858
20
-383.75
30
0
11
-3.9999999999999858
21
-393.75
31
0
0
LINE
5
303
100
AcDbEntity
8
0
100
AcDbLine
10
200
20
-318.75
30
0
11
200
21
-327.5
31
0
0
LINE
5
304
100
AcDbEntity
8
0
100
AcDbLine
10
-3.9999999999999858
20
-412.5
30
0
11
0
21
-412.5
31
0
0
LINE
5
305
100
AcDbEntity
8
0
100
AcDbLine
10
-3.9999999999999858
20
-402.5
30
0
11
0
21
-402.5
31
0
0
LINE
5
306
100
AcDbEntity
8
0
100
AcDbLine
10
-3.9999999999999858
20
-383.75
30
0
11
-3.9999999999999858
21
-393.75
31
0
0
LINE
5
307
100
AcDbEntity
8
0
100
AcDbLine
10
0
20
-356.25
30
0
11
0
21
-365
31
0
0
LINE
5
308
100
AcDbEntity
8
0
100
AcDbLine
10
200
20
-393.75
30
0
11
200
21
-402.5
31
0
0
LINE
5
309
100
AcDbEntity
8
0
100
AcDbLine
10
204
20
-440
30
0
11
200
21
-440
31
0
0
LINE
5
310
100
AcDbEntity
8
0
100
AcDbLine
10
204
20
-402.5
30
0
11
200
21
-402.5
31
0
0
LINE
5
311
100
AcDbEntity
8
0
100
AcDbLine
10
200
20
-327.5
30
0
11
204
21
-327.5
31
0
0
LINE
5
312
100
AcDbEntity
8
0
100
AcDbLine
10
0
20
-375
30
0
11
0
21
-383.75
31
0
0
LINE
5
313
100
AcDbEntity
8
0
100
AcDbLine
10
0
20
-421.25
30
0
11
-3.9999999999999858
21
-421.25
31
0
0
LWPOLYLINE
5
314
100
AcDbEntity
8
0
100
AcDbPolyline
90
4
70
1
43
0.0
10
40
20
-402.5
10
36.000000000000014
20
-402.5
10
36.000000000000014
20
-412.5
10
40
20
-412.5
0
LWPOLYLINE
5
315
100
AcDbEntity
8
0
100
AcDbPolyline
90
4
70
1
43
0.0
10
43.999999999999986
20
-402.5
10
47.999999999999972
20
-402.5
10
47.999999999999972
20
-412.5
10
43.999999999999986
20
-412.5
0
LINE
5
316
100
AcDbEntity
8
0
100
AcDbLine
10
0
20
-412.5
30
0
11
0
21
-421.25
31
0
0
LINE
5
317
100
AcDbEntity
8
0
100
AcDbLine
10
200
20
-431.25
30
0
11
204
21
-431.25
31
0
0
LINE
5
318
100
AcDbEntity
8
0
100
AcDbLine
10
200
20
-375
30
0
11
200
21
-383.75
31
0
0
LINE
5
319
100
AcDbEntity
8
0
100
AcDbLine
10
-3.9999999999999858
20
-346.25
30
0
11
-3.9999999999999858
21
-356.25
31
0
0
LINE
5
320
100
AcDbEntity
8
0
100
AcDbLine
10
0
20
-383.75
30
0
11
-3.9999999999999858
21
-383.75
31
0
0
LINE
5
321
100
AcDbEntity
8
0
100
AcDbLine
10
204
20
-308.74999999999994
30
0
11
204
21
-318.75
31
0
0
LINE
5
322
100
AcDbEntity
8
0
100
AcDbLine
10
204
20
-383.75
30
0
11
204
21
-393.75
31
0
0
LINE
5
323
100
AcDbEntity
8
0
100
AcDbLine
10
0
20
-337.5
30
0
11
0
21
-346.25
31
0
0
LINE
5
324
100
AcDbEntity
8
0
100
AcDbLine
10
200
20
-412.5
30
0
11
200
21
-421.25
31
0
0
LINE
5
325
100
AcDbEntity
8
0
100
AcDbLine
10
0
20
-383.75
30
0
11
-3.9999999999999858
21
-383.75
31
0
0
LWPOLYLINE
5
326
100
AcDbEntity
8
0
100
AcDbPolyline
90
4
70
1
43
0.0
10
36.000000000000014
20
-402.5
10
36.000000000000014
20
-412.5
10
40
20
-412.5
10
40
20
-402.5
0
LINE
5
327
100
AcDbEntity
8
0
100
AcDbLine
10
-3.9999999999999858
20
-318.75
30
0
11
0
21
-318.75
31
0
0
LINE
5
328
100
AcDbEntity
8
0
100
AcDbLine
10
-3.9999999999999858
20
-318.75
30
0
11
0
21
-318.75
31
0
0
LINE
5
329
100
AcDbEntity
8
0
100
AcDbLine
10
59.999999999999943
20
-414.2086757547799
30
0
11
59.999999999999943
21
-434.2086757547799
31
0
0
LINE
5
330
100
AcDbEntity
8
0
100
AcDbLine
10
-3.9999999999999858
20
-402.5
30
0
11
-3.9999999999999858
21
-412.5
31
0
0
LINE
5
331
100
AcDbEntity
8
0
100
AcDbLine
10
-3.9999999999999858
20
-308.74999999999994
30
0
11
-3.9999999999999858
21
-318.75
31
0
0
LINE
5
332
100
AcDbEntity
8
0
100
AcDbLine
10
204
20
-356.25
30
0
11
200
21
-356.25
31
0
0
LINE
5
333
100
AcDbEntity
8
0
100
AcDbLine
10
0
20
-327.5
30
0
11
-3.9999999999999858
21
-327.5
31
0
0
LINE
5
334
100
AcDbEntity
8
0
100
AcDbLine
10
59.999999999999943
20
-434.2086757547799
30
0
11
59.999999999999964
21
-414.2086757547799
31
0
0
LINE
5
335
100
AcDbEntity
8
0
100
AcDbLine
10
204
20
-327.5
30
0
11
204
21
-337.5
31
0
0
LINE
5
336
100
AcDbEntity
8
0
100
AcDbLine
10
204
20
-421.25
30
0
11
200
21
-421.25
31
0
0
LINE
5
337
100
AcDbEntity
8
0
100
AcDbLine
10
200
20
-346.25
30
0
11
204
21
-346.25
31
0
0
LINE
5
338
100
AcDbEntity
8
0
100
AcDbLine
10
200
20
-308.74999999999994
30
0
11
204
21
-308.74999999999994
31
0
0
LINE
5
339
100
AcDbEntity
8
0
100
AcDbLine
10
-3.9999999999999858
20
-402.5
30
0
11
-3.9999999999999858
21
-412.5
31
0
0
LINE
5
340
100
AcDbEntity
8
0
100
AcDbLine
10
-3.9999999999999858
20
-337.5
30
0
11
0
21
-337.5
31
0
0
LINE
5
341
100
AcDbEntity
8
0
100
AcDbLine
10
0
20
-365
30
0
11
-3.9999999999999858
21
-365
31
0
0
LINE
5
342
100
AcDbEntity
8
0
100
AcDbLine
10
-3.9999999999999858
20
-356.25
30
0
11
0
21
-356.25
31
0
0
LINE
5
343
100
AcDbEntity
8
0
100
AcDbLine
10
0
20
-393.75
30
0
11
-3.9999999999999858
21
-393.75
31
0
0
LINE
5
344
100
AcDbEntity
8
0
100
AcDbLine
10
0
20
-346.25
30
0
11
-3.9999999999999858
21
-346.25
31
0
0
LINE
5
345
100
AcDbEntity
8
0
100
AcDbLine
10
0
20
-393.75
30
0
11
0
21
-402.5
31
0
0
LINE
5
346
100
AcDbEntity
8
0
100
AcDbLine
10
204
20
-402.5
30
0
11
204
21
-412.5
31
0
0
LINE
5
347
100
AcDbEntity
8
0
100
AcDbLine
10
-3.9999999999999858
20
-356.25
30
0
11
0
21
-356.25
31
0
0
LWPOLYLINE
5
348
100
AcDbEntity
8
0
100
AcDbPolyline
90
4
70
1
43
0.0
10
47.999999999999972
20
-402.5
10
43.999999999999986
20
-402.5
10
43.999999999999986
20
-412.5
10
47.999999999999972
20
-412.5
0
LINE
5
349
100
AcDbEntity
8
0
100
AcDbLine
10
200
20
-375
30
0
11
204
21
-375
31
0
0
LINE
5
350
100
AcDbEntity
8
0
100
AcDbLine
10
-3.9999999999999858
20
-346.25
30
0
11
-3.9999999999999858
21
-356.25
31
0
0
LINE
5
351
100
AcDbEntity
8
0
100
AcDbLine
10
0
20
-356.25
30
0
11
0
21
-365
31
0
0
LINE
5
352
100
AcDbEntity
8
0
100
AcDbLine
10
-3.9999999999999858
20
-375
30
0
11
0
21
-375
31
0
0
LINE
5
353
100
AcDbEntity
8
0
100
AcDbLine
10
0
20
-431.25
30
0
11
0
21
-440
31
0
0
LINE
5
354
100
AcDbEntity
8
0
100
AcDbLine
10
0
20
-402.5
30
0
11
-3.9999999999999858
21
-402.5
31
0
0
LINE
5
355
100
AcDbEntity
8
0
100
AcDbLine
10
-3.9999999999999858
20
-337.5
30
0
11
0
21
-337.5
31
0
0
LINE
5
356
100
AcDbEntity
8
0
100
AcDbLine
10
204
20
-440
30
0
11
204
21
-450
31
0
0
LINE
5
357
100
AcDbEntity
8
0
100
AcDbLine
10
0
20
-393.75
30
0
11
0
21
-402.5
31
0
0
LINE
5
358
100
AcDbEntity
8
0
100
AcDbLine
10
0
20
-375
30
0
11
-3.9999999999999858
21
-375
31
0
0
LWPOLYLINE
5
359
100
AcDbEntity
8
0
100
AcDbPolyline
90
4
70
1
43
0.0
10
47.999999999999972
20
-412.5
10
47.999999999999972
20
-402.5
10
43.999999999999986
20
-402.5
10
43.999999999999986
20
-412.5
0
LINE
5
360
100
AcDbEntity
8
0
100
AcDbLine
10
200
20
-431.25
30
0
11
200
21
-440
31
0
0
LINE
5
361
100
AcDbEntity
8
0
100
AcDbLine
10
-3.9999999999999858
20
-421.25
30
0
11
-3.9999999999999858
21
-431.25
31
0
0
LINE
5
362
100
AcDbEntity
8
0
100
AcDbLine
10
200
20
-412.5
30
0
11
204
21
-412.5
31
0
0
LINE
5
363
100
AcDbEntity
8
0
100
AcDbLine
10
0
20
-365
30
0
11
-3.9999999999999858
21
-365
31
0
0
LINE
5
364
100
AcDbEntity
8
0
100
AcDbLine
10
0
20
-346.25
30
0
11
-3.9999999999999858
21
-346.25
31
0
0
LWPOLYLINE
5
365
100
AcDbEntity
8
0
100
AcDbPolyline
90
4
70
1
43
0.0
10
40
20
-402.5
10
40
20
-412.5
10
36.000000000000014
20
-412.5
10
36.000000000000014
20
-402.5
0
LINE
5
366
100
AcDbEntity
8
0
100
AcDbLine
10
200
20
-383.75
30
0
11
204
21
-383.75
31
0
0
LINE
5
367
100
AcDbEntity
8
0
100
AcDbLine
10
-3.9999999999999858
20
-393.75
30
0
11
0
21
-393.75
31
0
0
LINE
5
368
100
AcDbEntity
8
0
100
AcDbLine
10
0
20
-337.5
30
0
11
0
21
-346.25
31
0
0
LINE
5
369
100
AcDbEntity
8
0
100
AcDbLine
10
-3.9999999999999858
20
-440
30
0
11
-3.9999999999999858
21
-450
31
0
0
LINE
5
370
100
AcDbEntity
8
0
100
AcDbLine
10
0
20
-431.25
30
0
11
0
21
-440
31
0
0
LINE
5
371
100
AcDbEntity
8
0
100
AcDbLine
10
-3.9999999999999858
20
-421.25
30
0
11
0
21
-421.25
31
0
0
LINE
5
372
100
AcDbEntity
8
0
100
AcDbLine
10
-3.9999999999999858
20
-421.25
30
0
11
-3.9999999999999858
21
-431.25
31
0
0
LINE
5
373
100
AcDbEntity
8
0
100
AcDbLine
10
0
20
-412.5
30
0
11
-3.9999999999999858
21
-412.5
31
0
0
LINE
5
374
100
AcDbEntity
8
0
100
AcDbLine
10
0
20
-412.5
30
0
11
0
21
-421.25
31
0
0
LINE
5
375
100
AcDbEntity
8
0
100
AcDbLine
10
-3.9999999999999858
20
-440
30
0
11
0
21
-440
31
0
0
LINE
5
376
100
AcDbEntity
8
0
100
AcDbLine
10
-3.9999999999999858
20
-431.25
30
0
11
0
21
-431.25
31
0
0
LINE
5
377
100
AcDbEntity
8
0
100
AcDbLine
10
-3.9999999999999858
20
-440
30
0
11
-3.9999999999999858
21
-450
31
0
0
LINE
5
378
100
AcDbEntity
8
0
100
AcDbLine
10
0
20
-440
30
0
11
-3.9999999999999858
21
-440
31
0
0
LINE
5
379
100
AcDbEntity
8
0
100
AcDbLine
10
0
20
-431.25
30
0
11
-3.9999999999999858
21
-431.25
31
0
0
LWPOLYLINE
5
380
100
AcDbEntity
8
0
100
AcDbPolyline
90
4
70
1
43
0.0
10
36.000000000000014
20
-80.000002235174151
10
40
20
-80.000002235174151
10
40
20
-70.000002235174151
10
36.000000000000014
20
-70.000002235174151
0
LWPOLYLINE
5
381
100
AcDbEntity
8
0
100
AcDbPolyline
90
4
70
1
43
0.0
10
44.000000685453422
20
-80.000002235174151
10
48.000000685453408
20
-80.000002235174151
10
48.000000685453408
20
-70.000002235174151
10
44.000000685453422
20
-70.000002235174151
0
LWPOLYLINE
5
382
100
AcDbEntity
8
0
100
AcDbPolyline
90
4
70
1
43
0.0
10
20.000000298023224
20
-75.999996721744509
10
10.000000298023224
20
-75.999996721744509
10
10.000000298023224
20
-79.999996721744509
10
20.000000298023224
20
-79.999996721744509
0
LWPOLYLINE
5
383
100
AcDbEntity
8
0
100
AcDbPolyline
90
4
70
1
43
0.0
10
20.000000298023224
20
-88.000004529953031
10
10.000000298023224
20
-88.000004529953031
10
10.000000298023224
20
-84.000004529953031
10
20.000000298023224
20
-84.000004529953031
0
LINE
5
384
100
AcDbEntity
8
1
100
AcDbLine
10
100
20
0
30
0
11
100
21
-177.42691195271195
31
0
0
LWPOLYLINE
5
385
100
AcDbEntity
8
0
100
AcDbPolyline
90
4
70
1
43
0.0
10
36.000000000000007
20
-155.00000223517418
10
40.000000000000007
20
-155.00000223517418
10
40.000000000000007
20
-145.00000223517418
10
36.000000000000007
20
-145.00000223517418
0
LWPOLYLINE
5
386
100
AcDbEntity
8
0
100
AcDbPolyline
90
4
70
1
43
0.0
10
44.000000685453415
20
-155.00000223517418
10
48.000000685453415
20
-155.00000223517418
10
48.000000685453415
20
-145.00000223517418
10
44.000000685453415
20
-145.00000223517418
0
LWPOLYLINE
5
387
100
AcDbEntity
8
0
100
AcDbPolyline
90
4
70
1
43
0.0
10
36.000000000000007
20
-229.99999776482582
10
40.000000000000007
20
-229.99999776482582
10
40.000000000000007
20
-219.99999776482582
10
36.000000000000007
20
-219.99999776482582
0
LWPOLYLINE
5
388
100
AcDbEntity
8
0
100
AcDbPolyline
90
4
70
1
43
0.0
10
48.000000685453415
20
-229.99999776482582
10
44.000000685453415
20
-229.99999776482582
10
44.000000685453415
20
-219.99999776482582
10
48.000000685453415
20
-219.99999776482582
0
LWPOLYLINE
5
389
100
AcDbEntity
8
0
100
AcDbPolyline
90
4
70
1
43
0.0
10
20.000000298023224
20
-215.99999547004694
10
10.000000298023224
20
-215.99999547004694
10
10.000000298023224
20
-211.99999547004694
10
20.000000298023224
20
-211.99999547004694
0
LWPOLYLINE
5
390
100
AcDbEntity
8
0
100
AcDbPolyline
90
4
70
1
43
0.0
10
20.000000298023224
20
-224.00000327825546
10
10.000000298023224
20
-224.00000327825546
10
10.000000298023224
20
-220.00000327825546
10
20.000000298023224
20
-220.00000327825546
0
LWPOLYLINE
5
391
100
AcDbEntity
8
0
100
AcDbPolyline
90
4
70
1
43
0.0
10
164
20
-145.00000223517418
10
160
20
-145.00000223517418
10
160
20
-155.00000223517418
10
164
20
-155.00000223517418
0
LWPOLYLINE
5
392
100
AcDbEntity
8
0
100
AcDbPolyline
90
4
70
1
43
0.0
10
155.99999931454659
20
-219.99999776482582
10
151.99999931454659
20
-219.99999776482582
10
151.99999931454659
20
-229.99999776482582
10
155.99999931454659
20
-229.99999776482582
0
LWPOLYLINE
5
393
100
AcDbEntity
8
0
100
AcDbPolyline
90
4
70
1
43
0.0
10
189.99999970197678
20
-79.999996721744509
10
189.99999970197678
20
-75.999996721744509
10
179.99999970197678
20
-75.999996721744509
10
179.99999970197678
20
-79.999996721744509
0
LWPOLYLINE
5
394
100
AcDbEntity
8
0
100
AcDbPolyline
90
4
70
1
43
0.0
10
189.99999970197678
20
-79.999996721744509
10
179.99999970197678
20
-79.999996721744509
10
179.99999970197678
20
-75.999996721744509
10
189.99999970197678
20
-75.999996721744509
0
LWPOLYLINE
5
395
100
AcDbEntity
8
0
100
AcDbPolyline
90
4
70
1
43
0.0
10
179.99999970197678
20
-224.00000327825546
10
189.99999970197678
20
-224.00000327825546
10
189.99999970197678
20
-220.00000327825546
10
179.99999970197678
20
-220.00000327825546
0
LWPOLYLINE
5
396
100
AcDbEntity
8
0
100
AcDbPolyline
90
4
70
1
43
0.0
10
151.99999931454659
20
-155.00000223517418
10
155.99999931454659
20
-155.00000223517418
10
155.99999931454659
20
-145.00000223517418
10
151.99999931454659
20
-145.00000223517418
0
LWPOLYLINE
5
397
100
AcDbEntity
8
0
100
AcDbPolyline
90
4
70
1
43
0.0
10
189.99999970197678
20
-224.00000327825546
10
189.99999970197678
20
-220.00000327825546
10
179.99999970197678
20
-220.00000327825546
10
179.99999970197678
20
-224.00000327825546
0
LWPOLYLINE
5
398
100
AcDbEntity
8
0
100
AcDbPolyline
90
4
70
1
43
0.0
10
179.99999970197678
20
-211.99999547004694
10
179.99999970197678
20
-215.99999547004694
10
189.99999970197678
20
-215.99999547004694
10
189.99999970197678
20
-211.99999547004694
0
LWPOLYLINE
5
399
100
AcDbEntity
8
0
100
AcDbPolyline
90
4
70
1
43
0.0
10
151.99999931454659
20
-80.000002235174151
10
151.99999931454659
20
-70.000002235174151
10
155.99999931454659
20
-70.000002235174151
10
155.99999931454659
20
-80.000002235174151
0
LWPOLYLINE
5
400
100
AcDbEntity
8
0
100
AcDbPolyline
90
4
70
1
43
0.0
10
179.99999970197678
20
-84.000004529953031
10
179.99999970197678
20
-88.000004529953031
10
189.99999970197678
20
-88.000004529953031
10
189.99999970197678
20
-84.000004529953031
0
LWPOLYLINE
5
401
100
AcDbEntity
8
0
100
AcDbPolyline
90
4
70
1
43
0.0
10
160
20
-145.00000223517418
10
164
20
-145.00000223517418
10
164
20
-155.00000223517418
10
160
20
-155.00000223517418
0
LWPOLYLINE
5
402
100
AcDbEntity
8
0
100
AcDbPolyline
90
4
70
1
43
0.0
10
164
20
-229.99999776482582
10
164
20
-219.99999776482582
10
160
20
-219.99999776482582
10
160
20
-229.99999776482582
0
LWPOLYLINE
5
403
100
AcDbEntity
8
0
100
AcDbPolyline
90
4
70
1
43
0.0
10
189.99999970197678
20
-88.000004529953031
10
189.99999970197678
20
-84.000004529953031
10
179.99999970197678
20
-84.000004529953031
10
179.99999970197678
20
-88.000004529953031
0
LWPOLYLINE
5
404
100
AcDbEntity
8
0
100
AcDbPolyline
90
4
70
1
43
0.0
10
189.99999970197678
20
-211.99999547004694
10
179.99999970197678
20
-211.99999547004694
10
179.99999970197678
20
-215.99999547004694
10
189.99999970197678
20
-215.99999547004694
0
LWPOLYLINE
5
405
100
AcDbEntity
8
0
100
AcDbPolyline
90
4
70
1
43
0.0
10
151.99999931454659
20
-219.99999776482582
10
151.99999931454659
20
-229.99999776482582
10
155.99999931454659
20
-229.99999776482582
10
155.99999931454659
20
-219.99999776482582
0
LWPOLYLINE
5
406
100
AcDbEntity
8
0
100
AcDbPolyline
90
4
70
1
43
0.0
10
151.99999931454659
20
-70.000002235174151
10
151.99999931454659
20
-80.000002235174151
10
155.99999931454659
20
-80.000002235174151
10
155.99999931454659
20
-70.000002235174151
0
LWPOLYLINE
5
407
100
AcDbEntity
8
0
100
AcDbPolyline
90
4
70
1
43
0.0
10
160
20
-229.99999776482582
10
160
20
-219.99999776482582
10
164
20
-219.99999776482582
10
164
20
-229.99999776482582
0
LWPOLYLINE
5
408
100
AcDbEntity
8
0
100
AcDbPolyline
90
4
70
1
43
0.0
10
155.99999931454659
20
-145.00000223517418
10
155.99999931454659
20
-155.00000223517418
10
151.99999931454659
20
-155.00000223517418
10
151.99999931454659
20
-145.00000223517418
0
LWPOLYLINE
5
409
100
AcDbEntity
8
0
100
AcDbPolyline
90
4
70
1
43
0.0
10
160
20
-80.000002235174151
10
160
20
-70.000002235174151
10
164
20
-70.000002235174151
10
164
20
-80.000002235174151
0
LWPOLYLINE
5
410
100
AcDbEntity
8
0
100
AcDbPolyline
90
4
70
1
43
0.0
10
160
20
-80.000002235174151
10
164
20
-80.000002235174151
10
164
20
-70.000002235174151
10
160
20
-70.000002235174151
0
LWPOLYLINE
5
411
100
AcDbEntity
8
0
100
AcDbPolyline
90
4
70
1
43
0.0
10
0
20
0
10
200
20
0
10
200
20
-299.99999999999994
10
0
20
-299.99999999999994
0
LINE
5
412
100
AcDbEntity
8
0
100
AcDbLine
10
-37.5
20
-303.99999999999989
30
2.0088643939511604e-48
11
-46.25
21
-303.99999999999989
31
0
0
LINE
5
413
100
AcDbEntity
8
0
100
AcDbLine
10
-56.25
20
-303.99999999999989
30
2.0088643939511604e-48
11
-65
21
-303.99999999999989
31
0
0
LWPOLYLINE
5
414
100
AcDbEntity
8
0
100
AcDbPolyline
90
64
70
1
43
0.0
10
218.75
20
6.8308873040725629e-32
10
218.75
20
4
10
227.5
20
4
10
227.5
20
0
10
237.5
20
9.9123752150921403e-32
10
237.5
20
4
10
246.25
20
4
10
246.25
20
0
10
256.25
20
2.223832685917045e-31
10
256.25
20
4
10
265
20
4
10
265
20
0
10
275
20
2.8401302681209604e-31
10
275
20
4
10
283.75
20
4
10
283.75
20
0
10
293.75
20
3.4564278503248759e-31
10
293.75
20
4
10
302.5
20
4
10
302.5
20
0
10
312.5
20
4.0727254325287914e-31
10
312.5
20
4
10
321.25
20
4
10
321.25
20
0
10
331.25
20
4.9971718058346646e-31
10
331.25
20
4
10
340
20
4
10
340
20
0
10
350
20
5.6134693880385801e-31
10
350
20
-299.99999999999994
10
340
20
-299.99999999999994
10
340
20
-303.99999999999989
10
331.25
20
-303.99999999999989
10
331.25
20
-299.99999999999994
10
321.25
20
-299.99999999999994
10
321.25
20
-303.99999999999989
10
312.5
20
-303.99999999999989
10
312.5
20
-299.99999999999994
10
302.5
20
-299.99999999999994
10
302.5
20
-303.99999999999989
10
293.75
20
-303.99999999999989
10
293.75
20
-299.99999999999994
10
283.75
20
-299.99999999999994
10
283.75
20
-303.99999999999989
10
275
20
-303.99999999999989
10
275
20
-299.99999999999994
10
265
20
-299.99999999999994
10
265
20
-303.99999999999989
10
256.25
20
-303.99999999999989
10
256.25
20
-299.99999999999994
10
246.25
20
-299.99999999999994
10
246.25
20
-303.99999999999989
10
237.5
20
-303.99999999999989
10
237.5
20
-299.99999999999994
10
227.5
20
-299.99999999999994
10
227.5
20
-303.99999999999989
10
218.75
20
-303.99999999999989
10
218.75
20
-299.99999999999994
10
208.75
20
-299.99999999999994
10
208.75
20
-303.99999999999989
10
200
20
-303.99999999999989
10
200
20
3.9999999999999858
10
208.75
20
4
10
208.75
20
0
0
LINE
5
415
100
AcDbEntity
8
0
100
AcDbLine
10
218.75
20
0
30
0
11
208.75
21
0
31
0
0
LINE
5
416
100
AcDbEntity
8
0
100
AcDbLine
10
227.5
20
3.9999999999999858
30
0
11
218.75
21
3.9999999999999858
31
0
0
LINE
5
417
100
AcDbEntity
8
0
100
AcDbLine
10
-46.25
20
-303.99999999999989
30
0
11
-46.25
21
-299.99999999999994
31
2.2958450216584692e-48
0
LINE
5
418
100
AcDbEntity
8
0
100
AcDbLine
10
208.75
20
3.9999999999999858
30
0
11
208.75
21
0
31
0
0
LINE
5
419
100
AcDbEntity
8
0
100
AcDbLine
10
-56.25
20
-303.99999999999989
30
2.0088643939511604e-48
11
-56.25
21
-299.99999999999994
31
0
0
LINE
5
420
100
AcDbEntity
8
0
100
AcDbLine
10
-56.25
20
0
30
0
11
-46.25
21
0
31
0
0
LINE
5
421
100
AcDbEntity
8
0
100
AcDbLine
10
218.75
20
3.9999999999999858
30
0
11
218.75
21
0
31
0
0
LINE
5
422
100
AcDbEntity
8
0
100
AcDbLine
10
-37.5
20
-303.99999999999989
30
2.0088643939511604e-48
11
-37.5
21
-299.99999999999994
31
0
0
LINE
5
423
100
AcDbEntity
8
0
100
AcDbLine
10
-65
20
-303.99999999999989
30
0
11
-65
21
-299.99999999999994
31
2.2958450216584692e-48
0
LINE
5
424
100
AcDbEntity
8
0
100
AcDbLine
10
227.5
20
3.9999999999999858
30
0
11
227.5
21
0
31
0
0
LINE
5
425
100
AcDbEntity
8
0
100
AcDbLine
10
-131.25
20
-303.99999999999989
30
2.0088643939511604e-48
11
-131.25
21
-299.99999999999994
31
0
0
LWPOLYLINE
5
426
100
AcDbEntity
8
0
100
AcDbPolyline
90
64
70
1
43
0.0
10
-18.75
20
4
10
-27.5
20
4
10
-27.5
20
0
10
-37.5
20
9.9123752786937998e-32
10
-37.5
20
4
10
-46.25
20
4
10
-46.25
20
0
10
-56.25
20
2.2238326922772107e-31
10
-56.25
20
4
10
-65
20
4
10
-65
20
0
10
-75
20
2.8401302744811262e-31
10
-75
20
4
10
-83.75
20
4
10
-83.75
20
0
10
-93.75
20
3.4564278566850417e-31
10
-93.75
20
4
10
-102.5
20
4
10
-102.5
20
0
10
-112.5
20
4.0727254388889576e-31
10
-112.5
20
4
10
-121.25
20
4
10
-121.25
20
0
10
-131.25
20
4.9971718121948308e-31
10
-131.25
20
4
10
-140
20
4
10
-140
20
0
10
-150
20
5.6134693943987463e-31
10
-150
20
-299.99999999999994
10
-140
20
-299.99999999999994
10
-140
20
-303.99999999999989
10
-131.25
20
-303.99999999999989
10
-131.25
20
-299.99999999999994
10
-121.25
20
-299.99999999999994
10
-121.25
20
-303.99999999999989
10
-112.5
20
-303.99999999999989
10
-112.5
20
-299.99999999999994
10
-102.5
20
-299.99999999999994
10
-102.5
20
-303.99999999999989
10
-93.75
20
-303.99999999999989
10
-93.75
20
-299.99999999999994
10
-83.75
20
-299.99999999999994
10
-83.75
20
-303.99999999999989
10
-75
20
-303.99999999999989
10
-75
20
-299.99999999999994
10
-65
20
-299.99999999999994
10
-65
20
-303.99999999999989
10
-56.25
20
-303.99999999999989
10
-56.25
20
-299.99999999999994
10
-46.25
20
-299.99999999999994
10
-46.25
20
-303.99999999999989
10
-37.5
20
-303.99999999999989
10
-37.5
20
-299.99999999999994
10
-27.5
20
-299.99999999999994
10
-27.5
20
-303.99999999999989
10
-18.75
20
-303.99999999999989
10
-18.75
20
-299.99999999999994
10
-8.75
20
-299.99999999999994
10
-8.75
20
-303.99999999999989
10
0
20
-303.99999999999989
10
-4.6965252648004705e-32
20
3.9999999999999858
10
-8.75
20
4
10
-8.75
20
0
10
-18.75
20
6.8308873676742225e-32
0
LINE
5
427
100
AcDbEntity
8
0
100
AcDbLine
10
-56.25
20
3.9999999999999858
30
0
11
-65
21
3.9999999999999858
31
0
0
LINE
5
428
100
AcDbEntity
8
0
100
AcDbLine
10
-112.5
20
-303.99999999999989
30
2.0088643939511604e-48
11
-112.5
21
-299.99999999999994
31
0
0
LINE
5
429
100
AcDbEntity
8
0
100
AcDbLine
10
-56.25
20
3.9999999999999858
30
0
11
-56.25
21
0
31
0
0
LINE
5
430
100
AcDbEntity
8
0
100
AcDbLine
10
-102.5
20
-299.99999999999994
30
-5.5511151231257827e-16
11
-112.5
21
-299.99999999999994
31
0
0
LINE
5
431
100
AcDbEntity
8
0
100
AcDbLine
10
-46.25
20
3.9999999999999858
30
0
11
-37.5
21
3.9999999999999858
31
0
0
LINE
5
432
100
AcDbEntity
8
0
100
AcDbLine
10
-75
20
-303.99999999999989
30
2.0088643939511604e-48
11
-83.75
21
-303.99999999999989
31
0
0
LINE
5
433
100
AcDbEntity
8
0
100
AcDbLine
10
-27.5
20
0
30
0
11
-37.5
21
0
31
0
0
LINE
5
434
100
AcDbEntity
8
0
100
AcDbLine
10
237.5
20
3.9999999999999858
30
0
11
237.5
21
0
31
0
0
LINE
5
435
100
AcDbEntity
8
0
100
AcDbLine
10
-140
20
-303.99999999999989
30
-5.5511151231257827e-16
11
-140
21
-299.99999999999994
31
2.2958450216584692e-48
0
LINE
5
436
100
AcDbEntity
8
0
100
AcDbLine
10
256.25
20
3.9999999999999858
30
0
11
265
21
3.9999999999999858
31
0
0
LINE
5
437
100
AcDbEntity
8
0
100
AcDbLine
10
-56.25
20
0
30
0
11
-46.25
21
0
31
0
0
LINE
5
438
100
AcDbEntity
8
0
100
AcDbLine
10
-140
20
-299.99999999999994
30
2.2958450216584692e-48
11
-150
21
-299.99999999999994
31
0
0
LINE
5
439
100
AcDbEntity
8
0
100
AcDbLine
10
-27.5
20
-299.99999999999994
30
2.2958450216584692e-48
11
-37.5
21
-299.99999999999994
31
0
0
LINE
5
440
100
AcDbEntity
8
0
100
AcDbLine
10
-56.25
20
3.9999999999999858
30
0
11
-56.25
21
0
31
0
0
LINE
5
441
100
AcDbEntity
8
0
100
AcDbLine
10
227.5
20
0
30
0
11
227.5
21
3.9999999999999858
31
0
0
LINE
5
442
100
AcDbEntity
8
0
100
AcDbLine
10
208.75
20
3.9999999999999858
30
0
11
200
21
3.9999999999999858
31
5.5511151231257827e-16
0
LINE
5
443
100
AcDbEntity
8
0
100
AcDbLine
10
-83.75
20
-303.99999999999989
30
0
11
-83.75
21
-299.99999999999994
31
2.2958450216584692e-48
0
LINE
5
444
100
AcDbEntity
8
0
100
AcDbLine
10
-93.75
20
-303.99999999999989
30
2.0088643939511604e-48
11
-93.75
21
-299.99999999999994
31
0
0
LINE
5
445
100
AcDbEntity
8
0
100
AcDbLine
10
-27.5
20
-303.99999999999989
30
0
11
-27.5
21
-299.99999999999994
31
2.2958450216584692e-48
0
LINE
5
446
100
AcDbEntity
8
0
100
AcDbLine
10
-37.5
20
3.9999999999999858
30
0
11
-37.5
21
0
31
0
0
LINE
5
447
100
AcDbEntity
8
0
100
AcDbLine
10
-18.75
20
-303.99999999999989
30
2.0088643939511604e-48
11
-27.5
21
-303.99999999999989
31
0
0
LINE
5
448
100
AcDbEntity
8
0
100
AcDbLine
10
218.75
20
3.9999999999999858
30
0
11
218.75
21
0
31
0
0
LINE
5
449
100
AcDbEntity
8
0
100
AcDbLine
10
-131.25
20
-303.99999999999989
30
2.0088643939511604e-48
11
-138.94653755855879
21
-303.99999999999989
31
-4.8827846899452913e-16
0
LINE
5
450
100
AcDbEntity
8
0
100
AcDbLine
10
-75
20
0
30
0
11
-65
21
0
31
0
0
LINE
5
451
100
AcDbEntity
8
0
100
AcDbLine
10
-37.5
20
3.9999999999999858
30
0
11
-46.25
21
3.9999999999999858
31
0
0
LINE
5
452
100
AcDbEntity
8
0
100
AcDbLine
10
-65
20
3.9999999999999858
30
0
11
-65
21
0
31
0
0
LINE
5
453
100
AcDbEntity
8
0
100
AcDbLine
10
208.75
20
0
30
0
11
208.75
21
3.9999999999999858
31
0
0
LINE
5
454
100
AcDbEntity
8
0
100
AcDbLine
10
-93.75
20
-303.99999999999989
30
2.0088643939511604e-48
11
-102.5
21
-303.99999999999989
31
0
0
LINE
5
455
100
AcDbEntity
8
0
100
AcDbLine
10
-75
20
-303.99999999999989
30
2.0088643939511604e-48
11
-75
21
-299.99999999999994
31
0
0
LINE
5
456
100
AcDbEntity
8
0
100
AcDbLine
10
-8.75
20
3.9999999999999858
30
0
11
0
21
3.9999999999999858
31
5.5511151231257827e-16
0
LINE
5
457
100
AcDbEntity
8
0
100
AcDbLine
10
-8.75
20
-299.99999999999994
30
2.2958450216584692e-48
11
-18.75
21
-299.99999999999994
31
0
0
LINE
5
458
100
AcDbEntity
8
0
100
AcDbLine
10
-8.75
20
-303.99999999999989
30
0
11
-8.75
21
-299.99999999999994
31
2.2958450216584692e-48
0
LINE
5
459
100
AcDbEntity
8
0
100
AcDbLine
10
-8.75
20
0
30
0
11
-18.75
21
0
31
0
0
LINE
5
460
100
AcDbEntity
8
0
100
AcDbLine
10
-18.75
20
-303.99999999999989
30
2.0088643939511604e-48
11
-18.75
21
-299.99999999999994
31
0
0
LINE
5
461
100
AcDbEntity
8
0
100
AcDbLine
10
-18.75
20
0
30
0
11
-8.75
21
0
31
0
0
LINE
5
462
100
AcDbEntity
8
0
100
AcDbLine
10
218.75
20
3.9999999999999858
30
0
11
227.5
21
3.9999999999999858
31
0
0
LINE
5
463
100
AcDbEntity
8
0
100
AcDbLine
10
200
20
3.9999999999999858
30
5.5511151231257827e-16
11
208.75
21
3.9999999999999858
31
0
0
LINE
5
464
100
AcDbEntity
8
0
100
AcDbLine
10
-27.5
20
0
30
0
11
-27.5
21
3.9999999999999858
31
0
0
LINE
5
465
100
AcDbEntity
8
0
100
AcDbLine
10
-18.75
20
3.9999999999999858
30
0
11
-18.75
21
0
31
0
0
LINE
5
466
100
AcDbEntity
8
0
100
AcDbLine
10
208.75
20
0
30
0
11
218.75
21
0
31
0
0
LINE
5
467
100
AcDbEntity
8
0
100
AcDbLine
10
-65
20
-299.99999999999994
30
2.2958450216584692e-48
11
-75
21
-299.99999999999994
31
0
0
LINE
5
468
100
AcDbEntity
8
0
100
AcDbLine
10
-56.25
20
-299.99999999999994
30
0
11
-46.25
21
-299.99999999999994
31
2.2958450216584692e-48
0
LINE
5
469
100
AcDbEntity
8
0
100
AcDbLine
10
-27.5
20
3.9999999999999858
30
0
11
-18.75
21
3.9999999999999858
31
0
0
LINE
5
470
100
AcDbEntity
8
0
100
AcDbLine
10
-27.5
20
3.9999999999999858
30
0
11
-27.5
21
0
31
0
0
LINE
5
471
100
AcDbEntity
8
0
100
AcDbLine
10
-65
20
0
30
0
11
-75
21
0
31
0
0
LINE
5
472
100
AcDbEntity
8
0
100
AcDbLine
10
-150
20
-149.99999999999997
30
0
11
-150
21
0
31
0
0
LINE
5
473
100
AcDbEntity
8
0
100
AcDbLine
10
0
20
-303.99999999999989
30
5.5511151231257827e-16
11
-2.3482626324002352e-32
21
-149.99999999999997
31
2.7755575615628914e-16
0
LINE
5
474
100
AcDbEntity
8
0
100
AcDbLine
10
200
20
3.9999999999999858
30
5.5511151231257827e-16
11
200
21
-149.99999999999997
31
2.7755575615628914e-16
0
LINE
5
475
100
AcDbEntity
8
0
100
AcDbLine
10
-150
20
-149.99999999999997
30
-1.1479225108292346e-48
11
-150
21
-299.99999999999994
31
0
0
LINE
5
476
100
AcDbEntity
8
0
100
AcDbLine
10
350
20
-149.99999999999997
30
-1.1479225108292346e-48
11
350
21
-299.99999999999994
31
0
0
LINE
5
477
100
AcDbEntity
8
0
100
AcDbLine
10
-18.75
20
3.9999999999999858
30
0
11
-18.75
21
0
31
0
0
LINE
5
478
100
AcDbEntity
8
0
100
AcDbLine
10
-18.75
20
3.9999999999999858
30
0
11
-27.5
21
3.9999999999999858
31
0
0
LINE
5
479
100
AcDbEntity
8
0
100
AcDbLine
10
-8.75
20
0
30
0
11
-8.75
21
3.9999999999999858
31
0
0
LINE
5
480
100
AcDbEntity
8
0
100
AcDbLine
10
0
20
-303.99999999999989
30
5.5511151231257827e-16
11
-8.75
21
-303.99999999999989
31
0
0
LINE
5
481
100
AcDbEntity
8
0
100
AcDbLine
10
0
20
3.9999999999999858
30
5.5511151231257827e-16
11
-2.3482626324002352e-32
21
-149.99999999999997
31
2.7755575615628914e-16
0
LINE
5
482
100
AcDbEntity
8
0
100
AcDbLine
10
-8.75
20
3.9999999999999858
30
0
11
-8.75
21
0
31
0
0
LINE
5
483
100
AcDbEntity
8
0
100
AcDbLine
10
0
20
3.9999999999999858
30
5.5511151231257827e-16
11
-8.75
21
3.9999999999999858
31
0
0
LINE
5
484
100
AcDbEntity
8
0
100
AcDbLine
10
-65
20
3.9999999999999858
30
0
11
-56.25
21
3.9999999999999858
31
0
0
LINE
5
485
100
AcDbEntity
8
0
100
AcDbLine
10
-46.25
20
3.9999999999999858
30
0
11
-46.25
21
0
31
0
0
LINE
5
486
100
AcDbEntity
8
0
100
AcDbLine
10
350
20
-149.99999999999997
30
0
11
350
21
0
31
0
0
LINE
5
487
100
AcDbEntity
8
0
100
AcDbLine
10
-112.5
20
-303.99999999999989
30
2.0088643939511604e-48
11
-121.25
21
-303.99999999999989
31
0
0
LINE
5
488
100
AcDbEntity
8
0
100
AcDbLine
10
-121.25
20
-299.99999999999994
30
-5.5511151231257827e-16
11
-131.25
21
-299.99999999999994
31
0
0
LINE
5
489
100
AcDbEntity
8
0
100
AcDbLine
10
-46.25
20
0
30
0
11
-46.25
21
3.9999999999999858
31
0
0
LINE
5
490
100
AcDbEntity
8
0
100
AcDbLine
10
-65
20
0
30
0
11
-65
21
3.9999999999999858
31
0
0
LINE
5
491
100
AcDbEntity
8
0
100
AcDbLine
10
-83.75
20
-299.99999999999994
30
2.2958450216584692e-48
11
-93.75
21
-299.99999999999994
31
0
0
LINE
5
492
100
AcDbEntity
8
0
100
AcDbLine
10
-140
20
-303.99999999999989
30
-5.5511151231257827e-16
11
-138.94653755855879
21
-303.99999999999989
31
-4.8827846899452913e-16
0
LINE
5
493
100
AcDbEntity
8
0
100
AcDbLine
10
200
20
-303.99999999999989
30
5.5511151231257827e-16
11
200
21
-149.99999999999997
31
2.7755575615628914e-16
0
LINE
5
494
100
AcDbEntity
8
0
100
AcDbLine
10
-121.25
20
-303.99999999999989
30
0
11
-121.25
21
-299.99999999999994
31
-5.5511151231257827e-16
0
LINE
5
495
100
AcDbEntity
8
0
100
AcDbLine
10
-37.5
20
3.9999999999999858
30
0
11
-37.5
21
0
31
0
0
LINE
5
496
100
AcDbEntity
8
0
100
AcDbLine
10
-102.5
20
-303.99999999999989
30
0
11
-102.5
21
-299.99999999999994
31
-5.5511151231257827e-16
0
LINE
5
497
100
AcDbEntity
8
0
100
AcDbLine
10
256.25
20
0
30
0
11
246.25
21
0
31
0
0
LINE
5
498
100
AcDbEntity
8
0
100
AcDbLine
10
-37.5
20
0
30
0
11
-27.5
21
0
31
0
0
LINE
5
499
100
AcDbEntity
8
0
100
AcDbLine
10
256.25
20
-299.99999999999994
30
0
11
246.25
21
-299.99999999999994
31
2.2958450216584692e-48
0
LINE
5
500
100
AcDbEntity
8
0
100
AcDbLine
10
-112.5
20
0
30
0
11
-102.5
21
0
31
-5.5511151231257827e-16
0
LINE
5
501
100
AcDbEntity
8
0
100
AcDbLine
10
-102.5
20
0
30
-5.5511151231257827e-16
11
-112.5
21
0
31
0
0
LINE
5
502
100
AcDbEntity
8
0
100
AcDbLine
10
256.25
20
3.9999999999999858
30
0
11
256.25
21
0
31
0
0
LINE
5
503
100
AcDbEntity
8
0
100
AcDbLine
10
256.25
20
3.9999999999999858
30
0
11
256.25
21
0
31
0
0
LINE
5
504
100
AcDbEntity
8
0
100
AcDbLine
10
227.5
20
-299.99999999999994
30
2.2958450216584692e-48
11
237.5
21
-299.99999999999994
31
0
0
LINE
5
505
100
AcDbEntity
8
0
100
AcDbLine
10
-75
20
3.9999999999999858
30
0
11
-83.75
21
3.9999999999999858
31
0
0
LINE
5
506
100
AcDbEntity
8
0
100
AcDbLine
10
265
20
3.9999999999999858
30
0
11
265
21
0
31
0
0
LINE
5
507
100
AcDbEntity
8
0
100
AcDbLine
10
-83.75
20
3.9999999999999858
30
0
11
-83.75
21
0
31
0
0
LINE
5
508
100
AcDbEntity
8
0
100
AcDbLine
10
265
20
3.9999999999999858
30
0
11
256.25
21
3.9999999999999858
31
0
0
LINE
5
509
100
AcDbEntity
8
0
100
AcDbLine
10
246.25
20
-303.99999999999989
30
0
11
246.25
21
-299.99999999999994
31
2.2958450216584692e-48
0
LINE
5
510
100
AcDbEntity
8
0
100
AcDbLine
10
246.25
20
0
30
0
11
246.25
21
3.9999999999999858
31
0
0
LINE
5
511
100
AcDbEntity
8
0
100
AcDbLine
10
256.25
20
0
30
0
11
246.25
21
0
31
0
0
LINE
5
512
100
AcDbEntity
8
0
100
AcDbLine
10
-93.75
20
0
30
0
11
-83.75
21
0
31
0
0
LINE
5
513
100
AcDbEntity
8
0
100
AcDbLine
10
237.5
20
-303.99999999999989
30
2.0088643939511604e-48
11
237.5
21
-299.99999999999994
31
0
0
LINE
5
514
100
AcDbEntity
8
0
100
AcDbLine
10
-75
20
3.9999999999999858
30
0
11
-75
21
0
31
0
0
LINE
5
515
100
AcDbEntity
8
0
100
AcDbLine
10
302.5
20
-299.99999999999994
30
-5.5511151231257827e-16
11
312.5
21
-299.99999999999994
31
0
0
LINE
5
516
100
AcDbEntity
8
0
100
AcDbLine
10
218.75
20
-303.99999999999989
30
2.0088643939511604e-48
11
227.5
21
-303.99999999999989
31
0
0
LINE
5
517
100
AcDbEntity
8
0
100
AcDbLine
10
237.5
20
3.9999999999999858
30
0
11
246.25
21
3.9999999999999858
31
0
0
LINE
5
518
100
AcDbEntity
8
0
100
AcDbLine
10
-83.75
20
3.9999999999999858
30
0
11
-75
21
3.9999999999999858
31
0
0
LINE
5
519
100
AcDbEntity
8
0
100
AcDbLine
10
-112.5
20
3.9999999999999858
30
0
11
-112.5
21
0
31
0
0
LINE
5
520
100
AcDbEntity
8
0
100
AcDbLine
10
-93.75
20
3.9999999999999858
30
0
11
-93.75
21
0
31
0
0
LINE
5
521
100
AcDbEntity
8
0
100
AcDbLine
10
265
20
0
30
0
11
265
21
3.9999999999999858
31
0
0
LINE
5
522
100
AcDbEntity
8
0
100
AcDbLine
10
237.5
20
-303.99999999999989
30
2.0088643939511604e-48
11
246.25
21
-303.99999999999989
31
0
0
LINE
5
523
100
AcDbEntity
8
0
100
AcDbLine
10
-93.75
20
3.9999999999999858
30
0
11
-102.5
21
3.9999999999999858
31
0
0
LINE
5
524
100
AcDbEntity
8
0
100
AcDbLine
10
200
20
-303.99999999999989
30
5.5511151231257827e-16
11
208.75
21
-303.99999999999989
31
0
0
LINE
5
525
100
AcDbEntity
8
0
100
AcDbLine
10
293.75
20
-303.99999999999989
30
2.0088643939511604e-48
11
302.5
21
-303.99999999999989
31
0
0
LINE
5
526
100
AcDbEntity
8
0
100
AcDbLine
10
275
20
0
30
0
11
265
21
0
31
0
0
LINE
5
527
100
AcDbEntity
8
0
100
AcDbLine
10
218.75
20
-303.99999999999989
30
2.0088643939511604e-48
11
218.75
21
-299.99999999999994
31
0
0
LINE
5
528
100
AcDbEntity
8
0
100
AcDbLine
10
283.75
20
-303.99999999999989
30
0
11
283.75
21
-299.99999999999994
31
2.2958450216584692e-48
0
LINE
5
529
100
AcDbEntity
8
0
100
AcDbLine
10
-75
20
3.9999999999999858
30
0
11
-75
21
0
31
0
0
LINE
5
530
100
AcDbEntity
8
0
100
AcDbLine
10
-140
20
0
30
0
11
-140
21
3.9999999999999858
31
-5.5511151231257827e-16
0
LINE
5
531
100
AcDbEntity
8
0
100
AcDbLine
10
256.25
20
-303.99999999999989
30
2.0088643939511604e-48
11
265
21
-303.99999999999989
31
0
0
LINE
5
532
100
AcDbEntity
8
0
100
AcDbLine
10
227.5
20
-303.99999999999989
30
0
11
227.5
21
-299.99999999999994
31
2.2958450216584692e-48
0
LINE
5
533
100
AcDbEntity
8
0
100
AcDbLine
10
-131.25
20
3.9999999999999858
30
0
11
-131.25
21
0
31
0
0
LINE
5
534
100
AcDbEntity
8
0
100
AcDbLine
10
302.5
20
-303.99999999999989
30
0
11
302.5
21
-299.99999999999994
31
-5.5511151231257827e-16
0
LINE
5
535
100
AcDbEntity
8
0
100
AcDbLine
10
-140
20
3.9999999999999858
30
-5.5511151231257827e-16
11
-138.94653755855879
21
3.9999999999999858
31
-4.8827846899452903e-16
0
LINE
5
536
100
AcDbEntity
8
0
100
AcDbLine
10
-121.25
20
0
30
-5.5511151231257827e-16
11
-121.25
21
3.9999999999999858
31
0
0
LINE
5
537
100
AcDbEntity
8
0
100
AcDbLine
10
237.5
20
3.9999999999999858
30
0
11
237.5
21
0
31
0
0
LINE
5
538
100
AcDbEntity
8
0
100
AcDbLine
10
-83.75
20
0
30
0
11
-93.75
21
0
31
0
0
LINE
5
539
100
AcDbEntity
8
0
100
AcDbLine
10
208.75
20
-299.99999999999994
30
2.2958450216584692e-48
11
218.75
21
-299.99999999999994
31
0
0
LINE
5
540
100
AcDbEntity
8
0
100
AcDbLine
10
-93.75
20
3.9999999999999858
30
0
11
-93.75
21
0
31
0
0
LINE
5
541
100
AcDbEntity
8
0
100
AcDbLine
10
-102.5
20
3.9999999999999858
30
0
11
-93.75
21
3.9999999999999858
31
0
0
LINE
5
542
100
AcDbEntity
8
0
100
AcDbLine
10
275
20
-303.99999999999989
30
2.0088643939511604e-48
11
275
21
-299.99999999999994
31
0
0
LINE
5
543
100
AcDbEntity
8
0
100
AcDbLine
10
283.75
20
-299.99999999999994
30
2.2958450216584692e-48
11
293.75
21
-299.99999999999994
31
0
0
LINE
5
544
100
AcDbEntity
8
0
100
AcDbLine
10
-112.5
20
3.9999999999999858
30
0
11
-121.25
21
3.9999999999999858
31
0
0
LINE
5
545
100
AcDbEntity
8
0
100
AcDbLine
10
-112.5
20
3.9999999999999858
30
0
11
-112.5
21
0
31
0
0
LINE
5
546
100
AcDbEntity
8
0
100
AcDbLine
10
-102.5
20
0
30
-5.5511151231257827e-16
11
-102.5
21
3.9999999999999858
31
0
0
LINE
5
547
100
AcDbEntity
8
0
100
AcDbLine
10
265
20
0
30
0
11
275
21
0
31
0
0
LINE
5
548
100
AcDbEntity
8
0
100
AcDbLine
10
-140
20
3.9999999999999858
30
-5.5511151231257827e-16
11
-131.25
21
3.9999999999999858
31
0
0
LINE
5
549
100
AcDbEntity
8
0
100
AcDbLine
10
246.25
20
3.9999999999999858
30
0
11
237.5
21
3.9999999999999858
31
0
0
LINE
5
550
100
AcDbEntity
8
0
100
AcDbLine
10
-131.25
20
0
30
0
11
-121.25
21
0
31
-5.5511151231257827e-16
0
LINE
5
551
100
AcDbEntity
8
0
100
AcDbLine
10
246.25
20
3.9999999999999858
30
0
11
246.25
21
0
31
0
0
LINE
5
552
100
AcDbEntity
8
0
100
AcDbLine
10
-102.5
20
3.9999999999999858
30
0
11
-102.5
21
0
31
-5.5511151231257827e-16
0
LINE
5
553
100
AcDbEntity
8
0
100
AcDbLine
10
265
20
-299.99999999999994
30
2.2958450216584692e-48
11
275
21
-299.99999999999994
31
0
0
LINE
5
554
100
AcDbEntity
8
0
100
AcDbLine
10
237.5
20
0
30
0
11
227.5
21
0
31
0
0
LINE
5
555
100
AcDbEntity
8
0
100
AcDbLine
10
340
20
-299.99999999999994
30
2.2958450216584692e-48
11
350
21
-299.99999999999994
31
0
0
LINE
5
556
100
AcDbEntity
8
0
100
AcDbLine
10
302.5
20
0
30
-5.5511151231257827e-16
11
312.5
21
0
31
0
0
LINE
5
557
100
AcDbEntity
8
0
100
AcDbLine
10
321.25
20
-299.99999999999994
30
-5.5511151231257827e-16
11
331.25
21
-299.99999999999994
31
0
0
LINE
5
558
100
AcDbEntity
8
0
100
AcDbLine
10
208.75
20
-303.99999999999989
30
0
11
208.75
21
-299.99999999999994
31
2.2958450216584692e-48
0
LINE
5
559
100
AcDbEntity
8
0
100
AcDbLine
10
312.5
20
0
30
0
11
302.5
21
0
31
-5.5511151231257827e-16
0
LINE
5
560
100
AcDbEntity
8
0
100
AcDbLine
10
-83.75
20
0
30
0
11
-83.75
21
3.9999999999999858
31
0
0
LINE
5
561
100
AcDbEntity
8
0
100
AcDbLine
10
312.5
20
-303.99999999999989
30
2.0088643939511604e-48
11
312.5
21
-299.99999999999994
31
0
0
LINE
5
562
100
AcDbEntity
8
0
100
AcDbLine
10
227.5
20
0
30
0
11
237.5
21
0
31
0
0
LINE
5
563
100
AcDbEntity
8
0
100
AcDbLine
10
265
20
-303.99999999999989
30
0
11
265
21
-299.99999999999994
31
2.2958450216584692e-48
0
LINE
5
564
100
AcDbEntity
8
0
100
AcDbLine
10
-121.25
20
3.9999999999999858
30
0
11
-112.5
21
3.9999999999999858
31
0
0
LINE
5
565
100
AcDbEntity
8
0
100
AcDbLine
10
340
20
3.9999999999999858
30
-5.5511151231257827e-16
11
338.94653755855876
21
3.9999999999999858
31
-4.8827846899452903e-16
0
LINE
5
566
100
AcDbEntity
8
0
100
AcDbLine
10
293.75
20
3.9999999999999858
30
0
11
302.5
21
3.9999999999999858
31
0
0
LINE
5
567
100
AcDbEntity
8
0
100
AcDbLine
10
275
20
3.9999999999999858
30
0
11
283.75
21
3.9999999999999858
31
0
0
LINE
5
568
100
AcDbEntity
8
0
100
AcDbLine
10
321.25
20
0
30
-5.5511151231257827e-16
11
321.25
21
3.9999999999999858
31
0
0
LINE
5
569
100
AcDbEntity
8
0
100
AcDbLine
10
331.25
20
3.9999999999999858
30
0
11
338.94653755855876
21
3.9999999999999858
31
-4.8827846899452903e-16
0
LINE
5
570
100
AcDbEntity
8
0
100
AcDbLine
10
283.75
20
3.9999999999999858
30
0
11
283.75
21
0
31
0
0
LINE
5
571
100
AcDbEntity
8
0
100
AcDbLine
10
331.25
20
0
30
0
11
321.25
21
0
31
-5.5511151231257827e-16
0
LINE
5
572
100
AcDbEntity
8
0
100
AcDbLine
10
283.75
20
0
30
0
11
283.75
21
3.9999999999999858
31
0
0
LINE
5
573
100
AcDbEntity
8
0
100
AcDbLine
10
283.75
20
0
30
0
11
293.75
21
0
31
0
0
LINE
5
574
100
AcDbEntity
8
0
100
AcDbLine
10
321.25
20
3.9999999999999858
30
0
11
312.5
21
3.9999999999999858
31
0
0
LINE
5
575
100
AcDbEntity
8
0
100
AcDbLine
10
302.5
20
3.9999999999999858
30
0
11
293.75
21
3.9999999999999858
31
0
0
LINE
5
576
100
AcDbEntity
8
0
100
AcDbLine
10
302.5
20
0
30
-5.5511151231257827e-16
11
302.5
21
3.9999999999999858
31
0
0
LINE
5
577
100
AcDbEntity
8
0
100
AcDbLine
10
331.25
20
3.9999999999999858
30
0
11
331.25
21
0
31
0
0
LINE
5
578
100
AcDbEntity
8
0
100
AcDbLine
10
275
20
3.9999999999999858
30
0
11
275
21
0
31
0
0
LINE
5
579
100
AcDbEntity
8
0
100
AcDbLine
10
331.25
20
3.9999999999999858
30
0
11
331.25
21
0
31
0
0
LINE
5
580
100
AcDbEntity
8
0
100
AcDbLine
10
283.75
20
3.9999999999999858
30
0
11
275
21
3.9999999999999858
31
0
0
LINE
5
581
100
AcDbEntity
8
0
100
AcDbLine
10
321.25
20
0
30
-5.5511151231257827e-16
11
331.25
21
0
31
0
0
LINE
5
582
100
AcDbEntity
8
0
100
AcDbLine
10
293.75
20
3.9999999999999858
30
0
11
293.75
21
0
31
0
0
LINE
5
583
100
AcDbEntity
8
0
100
AcDbLine
10
340
20
0
30
0
11
350
21
0
31
0
0
LINE
5
584
100
AcDbEntity
8
0
100
AcDbLine
10
302.5
20
3.9999999999999858
30
0
11
302.5
21
0
31
-5.5511151231257827e-16
0
LINE
5
585
100
AcDbEntity
8
0
100
AcDbLine
10
321.25
20
3.9999999999999858
30
0
11
321.25
21
0
31
-5.5511151231257827e-16
0
LINE
5
586
100
AcDbEntity
8
0
100
AcDbLine
10
340
20
3.9999999999999858
30
-5.5511151231257827e-16
11
340
21
0
31
0
0
LINE
5
587
100
AcDbEntity
8
0
100
AcDbLine
10
350
20
0
30
0
11
340
21
0
31
0
0
LINE
5
588
100
AcDbEntity
8
0
100
AcDbLine
10
340
20
3.9999999999999858
30
-5.5511151231257827e-16
11
331.25
21
3.9999999999999858
31
0
0
LINE
5
589
100
AcDbEntity
8
0
100
AcDbLine
10
312.5
20
3.9999999999999858
30
0
11
312.5
21
0
31
0
0
LINE
5
590
100
AcDbEntity
8
0
100
AcDbLine
10
312.5
20
3.9999999999999858
30
0
11
312.5
21
0
31
0
0
LINE
5
591
100
AcDbEntity
8
0
100
AcDbLine
10
340
20
0
30
0
11
340
21
3.9999999999999858
31
-5.5511151231257827e-16
0
LINE
5
592
100
AcDbEntity
8
0
100
AcDbLine
10
312.5
20
3.9999999999999858
30
0
11
321.25
21
3.9999999999999858
31
0
0
LINE
5
593
100
AcDbEntity
8
0
100
AcDbLine
10
312.5
20
-303.99999999999989
30
2.0088643939511604e-48
11
321.25
21
-303.99999999999989
31
0
0
LINE
5
594
100
AcDbEntity
8
0
100
AcDbLine
10
293.75
20
-303.99999999999989
30
2.0088643939511604e-48
11
293.75
21
-299.99999999999994
31
0
0
LINE
5
595
100
AcDbEntity
8
0
100
AcDbLine
10
-150
20
0
30
0
11
-140
21
0
31
0
0
LINE
5
596
100
AcDbEntity
8
0
100
AcDbLine
10
-131.25
20
3.9999999999999858
30
0
11
-131.25
21
0
31
0
0
LINE
5
597
100
AcDbEntity
8
0
100
AcDbLine
10
340
20
-303.99999999999989
30
-5.5511151231257827e-16
11
340
21
-299.99999999999994
31
2.2958450216584692e-48
0
LINE
5
598
100
AcDbEntity
8
0
100
AcDbLine
10
-140
20
0
30
0
11
-150
21
0
31
0
0
LINE
5
599
100
AcDbEntity
8
0
100
AcDbLine
10
-121.25
20
0
30
-5.5511151231257827e-16
11
-131.25
21
0
31
0
0
LINE
5
600
100
AcDbEntity
8
0
100
AcDbLine
10
-140
20
3.9999999999999858
30
-5.5511151231257827e-16
11
-140
21
0
31
0
0
LINE
5
601
100
AcDbEntity
8
0
100
AcDbLine
10
321.25
20
-303.99999999999989
30
0
11
321.25
21
-299.99999999999994
31
-5.5511151231257827e-16
0
LINE
5
602
100
AcDbEntity
8
0
100
AcDbLine
10
331.25
20
-303.99999999999989
30
2.0088643939511604e-48
11
331.25
21
-299.99999999999994
31
0
0
LINE
5
603
100
AcDbEntity
8
0
100
AcDbLine
10
-121.25
20
3.9999999999999858
30
0
11
-121.25
21
0
31
-5.5511151231257827e-16
0
LINE
5
604
100
AcDbEntity
8
0
100
AcDbLine
10
275
20
3.9999999999999858
30
0
11
275
21
0
31
0
0
LINE
5
605
100
AcDbEntity
8
0
100
AcDbLine
10
256.25
20
-303.99999999999989
30
2.0088643939511604e-48
11
256.25
21
-299.99999999999994
31
0
0
LINE
5
606
100
AcDbEntity
8
0
100
AcDbLine
10
340
20
-303.99999999999989
30
-5.5511151231257827e-16
11
338.94653755855876
21
-303.99999999999989
31
-4.8827846899452913e-16
0
LINE
5
607
100
AcDbEntity
8
0
100
AcDbLine
10
-131.25
20
3.9999999999999858
30
0
11
-138.94653755855879
21
3.9999999999999858
31
-4.8827846899452903e-16
0
LINE
5
608
100
AcDbEntity
8
0
100
AcDbLine
10
293.75
20
3.9999999999999858
30
0
11
293.75
21
0
31
0
0
LINE
5
609
100
AcDbEntity
8
0
100
AcDbLine
10
293.75
20
0
30
0
11
283.75
21
0
31
0
0
LINE
5
610
100
AcDbEntity
8
0
100
AcDbLine
10
331.25
20
-303.99999999999989
30
2.0088643939511604e-48
11
338.94653755855876
21
-303.99999999999989
31
-4.8827846899452913e-16
0
LINE
5
611
100
AcDbEntity
8
0
100
AcDbLine
10
275
20
-303.99999999999989
30
2.0088643939511604e-48
11
283.75
21
-303.99999999999989
31
0
0
ENDSEC
0
SECTION
2
OBJECTS
0
DICTIONARY
5
C
100
AcDbDictionary
3
ACAD_GROUP
350
D
3
ACAD_MLINESTYLE
350
17
0
DICTIONARY
5
D
100
AcDbDictionary
0
DICTIONARY
5
1A
330
C
100
AcDbDictionary
0
DICTIONARY
5
17
100
AcDbDictionary
0
ENDSEC
0
EOF
